<?xml version="1.0" encoding="utf-8" standalone="no"?>
<!DOCTYPE svg PUBLIC "-//W3C//DTD SVG 1.1//EN"
  "http://www.w3.org/Graphics/SVG/1.1/DTD/svg11.dtd">
<!-- Created with matplotlib (https://matplotlib.org/) -->
<svg height="345.6pt" version="1.1" viewBox="0 0 460.8 345.6" width="460.8pt" xmlns="http://www.w3.org/2000/svg" xmlns:xlink="http://www.w3.org/1999/xlink">
 <defs>
  <style type="text/css">
*{stroke-linecap:butt;stroke-linejoin:round;}
  </style>
 </defs>
 <g id="figure_1">
  <g id="patch_1">
   <path d="M 0 345.6 
L 460.8 345.6 
L 460.8 0 
L 0 0 
z
" style="fill:#ffffff;"/>
  </g>
  <g id="axes_1">
   <g id="patch_2">
    <path d="M 57.6 307.584 
L 414.72 307.584 
L 414.72 41.472 
L 57.6 41.472 
z
" style="fill:#ffffff;"/>
   </g>
   <g id="matplotlib.axis_1">
    <g id="xtick_1">
     <g id="line2d_1">
      <defs>
       <path d="M 0 0 
L 0 3.5 
" id="mc4e66d6ed8" style="stroke:#000000;stroke-width:0.8;"/>
      </defs>
      <g>
       <use style="stroke:#000000;stroke-width:0.8;" x="73.832727" xlink:href="#mc4e66d6ed8" y="307.584"/>
      </g>
     </g>
     <g id="text_1">
      <!-- 0 -->
      <defs>
       <path d="M 31.78125 66.40625 
Q 24.171875 66.40625 20.328125 58.90625 
Q 16.5 51.421875 16.5 36.375 
Q 16.5 21.390625 20.328125 13.890625 
Q 24.171875 6.390625 31.78125 6.390625 
Q 39.453125 6.390625 43.28125 13.890625 
Q 47.125 21.390625 47.125 36.375 
Q 47.125 51.421875 43.28125 58.90625 
Q 39.453125 66.40625 31.78125 66.40625 
z
M 31.78125 74.21875 
Q 44.046875 74.21875 50.515625 64.515625 
Q 56.984375 54.828125 56.984375 36.375 
Q 56.984375 17.96875 50.515625 8.265625 
Q 44.046875 -1.421875 31.78125 -1.421875 
Q 19.53125 -1.421875 13.0625 8.265625 
Q 6.59375 17.96875 6.59375 36.375 
Q 6.59375 54.828125 13.0625 64.515625 
Q 19.53125 74.21875 31.78125 74.21875 
z
" id="DejaVuSans-48"/>
      </defs>
      <g transform="translate(70.651477 322.182437)scale(0.1 -0.1)">
       <use xlink:href="#DejaVuSans-48"/>
      </g>
     </g>
    </g>
    <g id="xtick_2">
     <g id="line2d_2">
      <g>
       <use style="stroke:#000000;stroke-width:0.8;" x="138.893758" xlink:href="#mc4e66d6ed8" y="307.584"/>
      </g>
     </g>
     <g id="text_2">
      <!-- 100 -->
      <defs>
       <path d="M 12.40625 8.296875 
L 28.515625 8.296875 
L 28.515625 63.921875 
L 10.984375 60.40625 
L 10.984375 69.390625 
L 28.421875 72.90625 
L 38.28125 72.90625 
L 38.28125 8.296875 
L 54.390625 8.296875 
L 54.390625 0 
L 12.40625 0 
z
" id="DejaVuSans-49"/>
      </defs>
      <g transform="translate(129.350008 322.182437)scale(0.1 -0.1)">
       <use xlink:href="#DejaVuSans-49"/>
       <use x="63.623047" xlink:href="#DejaVuSans-48"/>
       <use x="127.246094" xlink:href="#DejaVuSans-48"/>
      </g>
     </g>
    </g>
    <g id="xtick_3">
     <g id="line2d_3">
      <g>
       <use style="stroke:#000000;stroke-width:0.8;" x="203.95479" xlink:href="#mc4e66d6ed8" y="307.584"/>
      </g>
     </g>
     <g id="text_3">
      <!-- 200 -->
      <defs>
       <path d="M 19.1875 8.296875 
L 53.609375 8.296875 
L 53.609375 0 
L 7.328125 0 
L 7.328125 8.296875 
Q 12.9375 14.109375 22.625 23.890625 
Q 32.328125 33.6875 34.8125 36.53125 
Q 39.546875 41.84375 41.421875 45.53125 
Q 43.3125 49.21875 43.3125 52.78125 
Q 43.3125 58.59375 39.234375 62.25 
Q 35.15625 65.921875 28.609375 65.921875 
Q 23.96875 65.921875 18.8125 64.3125 
Q 13.671875 62.703125 7.8125 59.421875 
L 7.8125 69.390625 
Q 13.765625 71.78125 18.9375 73 
Q 24.125 74.21875 28.421875 74.21875 
Q 39.75 74.21875 46.484375 68.546875 
Q 53.21875 62.890625 53.21875 53.421875 
Q 53.21875 48.921875 51.53125 44.890625 
Q 49.859375 40.875 45.40625 35.40625 
Q 44.1875 33.984375 37.640625 27.21875 
Q 31.109375 20.453125 19.1875 8.296875 
z
" id="DejaVuSans-50"/>
      </defs>
      <g transform="translate(194.41104 322.182437)scale(0.1 -0.1)">
       <use xlink:href="#DejaVuSans-50"/>
       <use x="63.623047" xlink:href="#DejaVuSans-48"/>
       <use x="127.246094" xlink:href="#DejaVuSans-48"/>
      </g>
     </g>
    </g>
    <g id="xtick_4">
     <g id="line2d_4">
      <g>
       <use style="stroke:#000000;stroke-width:0.8;" x="269.015821" xlink:href="#mc4e66d6ed8" y="307.584"/>
      </g>
     </g>
     <g id="text_4">
      <!-- 300 -->
      <defs>
       <path d="M 40.578125 39.3125 
Q 47.65625 37.796875 51.625 33 
Q 55.609375 28.21875 55.609375 21.1875 
Q 55.609375 10.40625 48.1875 4.484375 
Q 40.765625 -1.421875 27.09375 -1.421875 
Q 22.515625 -1.421875 17.65625 -0.515625 
Q 12.796875 0.390625 7.625 2.203125 
L 7.625 11.71875 
Q 11.71875 9.328125 16.59375 8.109375 
Q 21.484375 6.890625 26.8125 6.890625 
Q 36.078125 6.890625 40.9375 10.546875 
Q 45.796875 14.203125 45.796875 21.1875 
Q 45.796875 27.640625 41.28125 31.265625 
Q 36.765625 34.90625 28.71875 34.90625 
L 20.21875 34.90625 
L 20.21875 43.015625 
L 29.109375 43.015625 
Q 36.375 43.015625 40.234375 45.921875 
Q 44.09375 48.828125 44.09375 54.296875 
Q 44.09375 59.90625 40.109375 62.90625 
Q 36.140625 65.921875 28.71875 65.921875 
Q 24.65625 65.921875 20.015625 65.03125 
Q 15.375 64.15625 9.8125 62.3125 
L 9.8125 71.09375 
Q 15.4375 72.65625 20.34375 73.4375 
Q 25.25 74.21875 29.59375 74.21875 
Q 40.828125 74.21875 47.359375 69.109375 
Q 53.90625 64.015625 53.90625 55.328125 
Q 53.90625 49.265625 50.4375 45.09375 
Q 46.96875 40.921875 40.578125 39.3125 
z
" id="DejaVuSans-51"/>
      </defs>
      <g transform="translate(259.472071 322.182437)scale(0.1 -0.1)">
       <use xlink:href="#DejaVuSans-51"/>
       <use x="63.623047" xlink:href="#DejaVuSans-48"/>
       <use x="127.246094" xlink:href="#DejaVuSans-48"/>
      </g>
     </g>
    </g>
    <g id="xtick_5">
     <g id="line2d_5">
      <g>
       <use style="stroke:#000000;stroke-width:0.8;" x="334.076852" xlink:href="#mc4e66d6ed8" y="307.584"/>
      </g>
     </g>
     <g id="text_5">
      <!-- 400 -->
      <defs>
       <path d="M 37.796875 64.3125 
L 12.890625 25.390625 
L 37.796875 25.390625 
z
M 35.203125 72.90625 
L 47.609375 72.90625 
L 47.609375 25.390625 
L 58.015625 25.390625 
L 58.015625 17.1875 
L 47.609375 17.1875 
L 47.609375 0 
L 37.796875 0 
L 37.796875 17.1875 
L 4.890625 17.1875 
L 4.890625 26.703125 
z
" id="DejaVuSans-52"/>
      </defs>
      <g transform="translate(324.533102 322.182437)scale(0.1 -0.1)">
       <use xlink:href="#DejaVuSans-52"/>
       <use x="63.623047" xlink:href="#DejaVuSans-48"/>
       <use x="127.246094" xlink:href="#DejaVuSans-48"/>
      </g>
     </g>
    </g>
    <g id="xtick_6">
     <g id="line2d_6">
      <g>
       <use style="stroke:#000000;stroke-width:0.8;" x="399.137883" xlink:href="#mc4e66d6ed8" y="307.584"/>
      </g>
     </g>
     <g id="text_6">
      <!-- 500 -->
      <defs>
       <path d="M 10.796875 72.90625 
L 49.515625 72.90625 
L 49.515625 64.59375 
L 19.828125 64.59375 
L 19.828125 46.734375 
Q 21.96875 47.46875 24.109375 47.828125 
Q 26.265625 48.1875 28.421875 48.1875 
Q 40.625 48.1875 47.75 41.5 
Q 54.890625 34.8125 54.890625 23.390625 
Q 54.890625 11.625 47.5625 5.09375 
Q 40.234375 -1.421875 26.90625 -1.421875 
Q 22.3125 -1.421875 17.546875 -0.640625 
Q 12.796875 0.140625 7.71875 1.703125 
L 7.71875 11.625 
Q 12.109375 9.234375 16.796875 8.0625 
Q 21.484375 6.890625 26.703125 6.890625 
Q 35.15625 6.890625 40.078125 11.328125 
Q 45.015625 15.765625 45.015625 23.390625 
Q 45.015625 31 40.078125 35.4375 
Q 35.15625 39.890625 26.703125 39.890625 
Q 22.75 39.890625 18.8125 39.015625 
Q 14.890625 38.140625 10.796875 36.28125 
z
" id="DejaVuSans-53"/>
      </defs>
      <g transform="translate(389.594133 322.182437)scale(0.1 -0.1)">
       <use xlink:href="#DejaVuSans-53"/>
       <use x="63.623047" xlink:href="#DejaVuSans-48"/>
       <use x="127.246094" xlink:href="#DejaVuSans-48"/>
      </g>
     </g>
    </g>
    <g id="text_7">
     <!-- zaporedno število zahteve -->
     <defs>
      <path d="M 5.515625 54.6875 
L 48.1875 54.6875 
L 48.1875 46.484375 
L 14.40625 7.171875 
L 48.1875 7.171875 
L 48.1875 0 
L 4.296875 0 
L 4.296875 8.203125 
L 38.09375 47.515625 
L 5.515625 47.515625 
z
" id="DejaVuSans-122"/>
      <path d="M 34.28125 27.484375 
Q 23.390625 27.484375 19.1875 25 
Q 14.984375 22.515625 14.984375 16.5 
Q 14.984375 11.71875 18.140625 8.90625 
Q 21.296875 6.109375 26.703125 6.109375 
Q 34.1875 6.109375 38.703125 11.40625 
Q 43.21875 16.703125 43.21875 25.484375 
L 43.21875 27.484375 
z
M 52.203125 31.203125 
L 52.203125 0 
L 43.21875 0 
L 43.21875 8.296875 
Q 40.140625 3.328125 35.546875 0.953125 
Q 30.953125 -1.421875 24.3125 -1.421875 
Q 15.921875 -1.421875 10.953125 3.296875 
Q 6 8.015625 6 15.921875 
Q 6 25.140625 12.171875 29.828125 
Q 18.359375 34.515625 30.609375 34.515625 
L 43.21875 34.515625 
L 43.21875 35.40625 
Q 43.21875 41.609375 39.140625 45 
Q 35.0625 48.390625 27.6875 48.390625 
Q 23 48.390625 18.546875 47.265625 
Q 14.109375 46.140625 10.015625 43.890625 
L 10.015625 52.203125 
Q 14.9375 54.109375 19.578125 55.046875 
Q 24.21875 56 28.609375 56 
Q 40.484375 56 46.34375 49.84375 
Q 52.203125 43.703125 52.203125 31.203125 
z
" id="DejaVuSans-97"/>
      <path d="M 18.109375 8.203125 
L 18.109375 -20.796875 
L 9.078125 -20.796875 
L 9.078125 54.6875 
L 18.109375 54.6875 
L 18.109375 46.390625 
Q 20.953125 51.265625 25.265625 53.625 
Q 29.59375 56 35.59375 56 
Q 45.5625 56 51.78125 48.09375 
Q 58.015625 40.1875 58.015625 27.296875 
Q 58.015625 14.40625 51.78125 6.484375 
Q 45.5625 -1.421875 35.59375 -1.421875 
Q 29.59375 -1.421875 25.265625 0.953125 
Q 20.953125 3.328125 18.109375 8.203125 
z
M 48.6875 27.296875 
Q 48.6875 37.203125 44.609375 42.84375 
Q 40.53125 48.484375 33.40625 48.484375 
Q 26.265625 48.484375 22.1875 42.84375 
Q 18.109375 37.203125 18.109375 27.296875 
Q 18.109375 17.390625 22.1875 11.75 
Q 26.265625 6.109375 33.40625 6.109375 
Q 40.53125 6.109375 44.609375 11.75 
Q 48.6875 17.390625 48.6875 27.296875 
z
" id="DejaVuSans-112"/>
      <path d="M 30.609375 48.390625 
Q 23.390625 48.390625 19.1875 42.75 
Q 14.984375 37.109375 14.984375 27.296875 
Q 14.984375 17.484375 19.15625 11.84375 
Q 23.34375 6.203125 30.609375 6.203125 
Q 37.796875 6.203125 41.984375 11.859375 
Q 46.1875 17.53125 46.1875 27.296875 
Q 46.1875 37.015625 41.984375 42.703125 
Q 37.796875 48.390625 30.609375 48.390625 
z
M 30.609375 56 
Q 42.328125 56 49.015625 48.375 
Q 55.71875 40.765625 55.71875 27.296875 
Q 55.71875 13.875 49.015625 6.21875 
Q 42.328125 -1.421875 30.609375 -1.421875 
Q 18.84375 -1.421875 12.171875 6.21875 
Q 5.515625 13.875 5.515625 27.296875 
Q 5.515625 40.765625 12.171875 48.375 
Q 18.84375 56 30.609375 56 
z
" id="DejaVuSans-111"/>
      <path d="M 41.109375 46.296875 
Q 39.59375 47.171875 37.8125 47.578125 
Q 36.03125 48 33.890625 48 
Q 26.265625 48 22.1875 43.046875 
Q 18.109375 38.09375 18.109375 28.8125 
L 18.109375 0 
L 9.078125 0 
L 9.078125 54.6875 
L 18.109375 54.6875 
L 18.109375 46.1875 
Q 20.953125 51.171875 25.484375 53.578125 
Q 30.03125 56 36.53125 56 
Q 37.453125 56 38.578125 55.875 
Q 39.703125 55.765625 41.0625 55.515625 
z
" id="DejaVuSans-114"/>
      <path d="M 56.203125 29.59375 
L 56.203125 25.203125 
L 14.890625 25.203125 
Q 15.484375 15.921875 20.484375 11.0625 
Q 25.484375 6.203125 34.421875 6.203125 
Q 39.59375 6.203125 44.453125 7.46875 
Q 49.3125 8.734375 54.109375 11.28125 
L 54.109375 2.78125 
Q 49.265625 0.734375 44.1875 -0.34375 
Q 39.109375 -1.421875 33.890625 -1.421875 
Q 20.796875 -1.421875 13.15625 6.1875 
Q 5.515625 13.8125 5.515625 26.8125 
Q 5.515625 40.234375 12.765625 48.109375 
Q 20.015625 56 32.328125 56 
Q 43.359375 56 49.78125 48.890625 
Q 56.203125 41.796875 56.203125 29.59375 
z
M 47.21875 32.234375 
Q 47.125 39.59375 43.09375 43.984375 
Q 39.0625 48.390625 32.421875 48.390625 
Q 24.90625 48.390625 20.390625 44.140625 
Q 15.875 39.890625 15.1875 32.171875 
z
" id="DejaVuSans-101"/>
      <path d="M 45.40625 46.390625 
L 45.40625 75.984375 
L 54.390625 75.984375 
L 54.390625 0 
L 45.40625 0 
L 45.40625 8.203125 
Q 42.578125 3.328125 38.25 0.953125 
Q 33.9375 -1.421875 27.875 -1.421875 
Q 17.96875 -1.421875 11.734375 6.484375 
Q 5.515625 14.40625 5.515625 27.296875 
Q 5.515625 40.1875 11.734375 48.09375 
Q 17.96875 56 27.875 56 
Q 33.9375 56 38.25 53.625 
Q 42.578125 51.265625 45.40625 46.390625 
z
M 14.796875 27.296875 
Q 14.796875 17.390625 18.875 11.75 
Q 22.953125 6.109375 30.078125 6.109375 
Q 37.203125 6.109375 41.296875 11.75 
Q 45.40625 17.390625 45.40625 27.296875 
Q 45.40625 37.203125 41.296875 42.84375 
Q 37.203125 48.484375 30.078125 48.484375 
Q 22.953125 48.484375 18.875 42.84375 
Q 14.796875 37.203125 14.796875 27.296875 
z
" id="DejaVuSans-100"/>
      <path d="M 54.890625 33.015625 
L 54.890625 0 
L 45.90625 0 
L 45.90625 32.71875 
Q 45.90625 40.484375 42.875 44.328125 
Q 39.84375 48.1875 33.796875 48.1875 
Q 26.515625 48.1875 22.3125 43.546875 
Q 18.109375 38.921875 18.109375 30.90625 
L 18.109375 0 
L 9.078125 0 
L 9.078125 54.6875 
L 18.109375 54.6875 
L 18.109375 46.1875 
Q 21.34375 51.125 25.703125 53.5625 
Q 30.078125 56 35.796875 56 
Q 45.21875 56 50.046875 50.171875 
Q 54.890625 44.34375 54.890625 33.015625 
z
" id="DejaVuSans-110"/>
      <path id="DejaVuSans-32"/>
      <path d="M 44.28125 53.078125 
L 44.28125 44.578125 
Q 40.484375 46.53125 36.375 47.5 
Q 32.28125 48.484375 27.875 48.484375 
Q 21.1875 48.484375 17.84375 46.4375 
Q 14.5 44.390625 14.5 40.28125 
Q 14.5 37.15625 16.890625 35.375 
Q 19.28125 33.59375 26.515625 31.984375 
L 29.59375 31.296875 
Q 39.15625 29.25 43.1875 25.515625 
Q 47.21875 21.78125 47.21875 15.09375 
Q 47.21875 7.46875 41.1875 3.015625 
Q 35.15625 -1.421875 24.609375 -1.421875 
Q 20.21875 -1.421875 15.453125 -0.5625 
Q 10.6875 0.296875 5.421875 2 
L 5.421875 11.28125 
Q 10.40625 8.6875 15.234375 7.390625 
Q 20.0625 6.109375 24.8125 6.109375 
Q 31.15625 6.109375 34.5625 8.28125 
Q 37.984375 10.453125 37.984375 14.40625 
Q 37.984375 18.0625 35.515625 20.015625 
Q 33.0625 21.96875 24.703125 23.78125 
L 21.578125 24.515625 
Q 13.234375 26.265625 9.515625 29.90625 
Q 5.8125 33.546875 5.8125 39.890625 
Q 5.8125 47.609375 11.28125 51.796875 
Q 16.75 56 26.8125 56 
Q 31.78125 56 36.171875 55.265625 
Q 40.578125 54.546875 44.28125 53.078125 
z
M 23.484375 61.625 
L 11.53125 79.984375 
L 18.3125 79.984375 
L 27.09375 68.015625 
L 35.890625 79.984375 
L 42.671875 79.984375 
L 30.71875 61.625 
z
M 26.90625 56 
z
" id="DejaVuSans-353"/>
      <path d="M 18.3125 70.21875 
L 18.3125 54.6875 
L 36.8125 54.6875 
L 36.8125 47.703125 
L 18.3125 47.703125 
L 18.3125 18.015625 
Q 18.3125 11.328125 20.140625 9.421875 
Q 21.96875 7.515625 27.59375 7.515625 
L 36.8125 7.515625 
L 36.8125 0 
L 27.59375 0 
Q 17.1875 0 13.234375 3.875 
Q 9.28125 7.765625 9.28125 18.015625 
L 9.28125 47.703125 
L 2.6875 47.703125 
L 2.6875 54.6875 
L 9.28125 54.6875 
L 9.28125 70.21875 
z
" id="DejaVuSans-116"/>
      <path d="M 2.984375 54.6875 
L 12.5 54.6875 
L 29.59375 8.796875 
L 46.6875 54.6875 
L 56.203125 54.6875 
L 35.6875 0 
L 23.484375 0 
z
" id="DejaVuSans-118"/>
      <path d="M 9.421875 54.6875 
L 18.40625 54.6875 
L 18.40625 0 
L 9.421875 0 
z
M 9.421875 75.984375 
L 18.40625 75.984375 
L 18.40625 64.59375 
L 9.421875 64.59375 
z
" id="DejaVuSans-105"/>
      <path d="M 9.421875 75.984375 
L 18.40625 75.984375 
L 18.40625 0 
L 9.421875 0 
z
" id="DejaVuSans-108"/>
      <path d="M 54.890625 33.015625 
L 54.890625 0 
L 45.90625 0 
L 45.90625 32.71875 
Q 45.90625 40.484375 42.875 44.328125 
Q 39.84375 48.1875 33.796875 48.1875 
Q 26.515625 48.1875 22.3125 43.546875 
Q 18.109375 38.921875 18.109375 30.90625 
L 18.109375 0 
L 9.078125 0 
L 9.078125 75.984375 
L 18.109375 75.984375 
L 18.109375 46.1875 
Q 21.34375 51.125 25.703125 53.5625 
Q 30.078125 56 35.796875 56 
Q 45.21875 56 50.046875 50.171875 
Q 54.890625 44.34375 54.890625 33.015625 
z
" id="DejaVuSans-104"/>
     </defs>
     <g transform="translate(170.159219 336.260562)scale(0.1 -0.1)">
      <use xlink:href="#DejaVuSans-122"/>
      <use x="52.490234" xlink:href="#DejaVuSans-97"/>
      <use x="113.769531" xlink:href="#DejaVuSans-112"/>
      <use x="177.246094" xlink:href="#DejaVuSans-111"/>
      <use x="238.427734" xlink:href="#DejaVuSans-114"/>
      <use x="279.509766" xlink:href="#DejaVuSans-101"/>
      <use x="341.033203" xlink:href="#DejaVuSans-100"/>
      <use x="404.509766" xlink:href="#DejaVuSans-110"/>
      <use x="467.888672" xlink:href="#DejaVuSans-111"/>
      <use x="529.070312" xlink:href="#DejaVuSans-32"/>
      <use x="560.857422" xlink:href="#DejaVuSans-353"/>
      <use x="612.957031" xlink:href="#DejaVuSans-116"/>
      <use x="652.166016" xlink:href="#DejaVuSans-101"/>
      <use x="713.689453" xlink:href="#DejaVuSans-118"/>
      <use x="772.869141" xlink:href="#DejaVuSans-105"/>
      <use x="800.652344" xlink:href="#DejaVuSans-108"/>
      <use x="828.435547" xlink:href="#DejaVuSans-111"/>
      <use x="889.617188" xlink:href="#DejaVuSans-32"/>
      <use x="921.404297" xlink:href="#DejaVuSans-122"/>
      <use x="973.894531" xlink:href="#DejaVuSans-97"/>
      <use x="1035.173828" xlink:href="#DejaVuSans-104"/>
      <use x="1098.552734" xlink:href="#DejaVuSans-116"/>
      <use x="1137.761719" xlink:href="#DejaVuSans-101"/>
      <use x="1199.285156" xlink:href="#DejaVuSans-118"/>
      <use x="1258.464844" xlink:href="#DejaVuSans-101"/>
     </g>
    </g>
   </g>
   <g id="matplotlib.axis_2">
    <g id="ytick_1">
     <g id="line2d_7">
      <defs>
       <path d="M 0 0 
L -3.5 0 
" id="ma057c5a7de" style="stroke:#000000;stroke-width:0.8;"/>
      </defs>
      <g>
       <use style="stroke:#000000;stroke-width:0.8;" x="57.6" xlink:href="#ma057c5a7de" y="296.70124"/>
      </g>
     </g>
     <g id="text_8">
      <!-- 0 -->
      <g transform="translate(44.2375 300.500458)scale(0.1 -0.1)">
       <use xlink:href="#DejaVuSans-48"/>
      </g>
     </g>
    </g>
    <g id="ytick_2">
     <g id="line2d_8">
      <g>
       <use style="stroke:#000000;stroke-width:0.8;" x="57.6" xlink:href="#ma057c5a7de" y="266.370247"/>
      </g>
     </g>
     <g id="text_9">
      <!-- 25 -->
      <g transform="translate(37.875 270.169465)scale(0.1 -0.1)">
       <use xlink:href="#DejaVuSans-50"/>
       <use x="63.623047" xlink:href="#DejaVuSans-53"/>
      </g>
     </g>
    </g>
    <g id="ytick_3">
     <g id="line2d_9">
      <g>
       <use style="stroke:#000000;stroke-width:0.8;" x="57.6" xlink:href="#ma057c5a7de" y="236.039254"/>
      </g>
     </g>
     <g id="text_10">
      <!-- 50 -->
      <g transform="translate(37.875 239.838473)scale(0.1 -0.1)">
       <use xlink:href="#DejaVuSans-53"/>
       <use x="63.623047" xlink:href="#DejaVuSans-48"/>
      </g>
     </g>
    </g>
    <g id="ytick_4">
     <g id="line2d_10">
      <g>
       <use style="stroke:#000000;stroke-width:0.8;" x="57.6" xlink:href="#ma057c5a7de" y="205.708261"/>
      </g>
     </g>
     <g id="text_11">
      <!-- 75 -->
      <defs>
       <path d="M 8.203125 72.90625 
L 55.078125 72.90625 
L 55.078125 68.703125 
L 28.609375 0 
L 18.3125 0 
L 43.21875 64.59375 
L 8.203125 64.59375 
z
" id="DejaVuSans-55"/>
      </defs>
      <g transform="translate(37.875 209.50748)scale(0.1 -0.1)">
       <use xlink:href="#DejaVuSans-55"/>
       <use x="63.623047" xlink:href="#DejaVuSans-53"/>
      </g>
     </g>
    </g>
    <g id="ytick_5">
     <g id="line2d_11">
      <g>
       <use style="stroke:#000000;stroke-width:0.8;" x="57.6" xlink:href="#ma057c5a7de" y="175.377268"/>
      </g>
     </g>
     <g id="text_12">
      <!-- 100 -->
      <g transform="translate(31.5125 179.176487)scale(0.1 -0.1)">
       <use xlink:href="#DejaVuSans-49"/>
       <use x="63.623047" xlink:href="#DejaVuSans-48"/>
       <use x="127.246094" xlink:href="#DejaVuSans-48"/>
      </g>
     </g>
    </g>
    <g id="ytick_6">
     <g id="line2d_12">
      <g>
       <use style="stroke:#000000;stroke-width:0.8;" x="57.6" xlink:href="#ma057c5a7de" y="145.046275"/>
      </g>
     </g>
     <g id="text_13">
      <!-- 125 -->
      <g transform="translate(31.5125 148.845494)scale(0.1 -0.1)">
       <use xlink:href="#DejaVuSans-49"/>
       <use x="63.623047" xlink:href="#DejaVuSans-50"/>
       <use x="127.246094" xlink:href="#DejaVuSans-53"/>
      </g>
     </g>
    </g>
    <g id="ytick_7">
     <g id="line2d_13">
      <g>
       <use style="stroke:#000000;stroke-width:0.8;" x="57.6" xlink:href="#ma057c5a7de" y="114.715282"/>
      </g>
     </g>
     <g id="text_14">
      <!-- 150 -->
      <g transform="translate(31.5125 118.514501)scale(0.1 -0.1)">
       <use xlink:href="#DejaVuSans-49"/>
       <use x="63.623047" xlink:href="#DejaVuSans-53"/>
       <use x="127.246094" xlink:href="#DejaVuSans-48"/>
      </g>
     </g>
    </g>
    <g id="ytick_8">
     <g id="line2d_14">
      <g>
       <use style="stroke:#000000;stroke-width:0.8;" x="57.6" xlink:href="#ma057c5a7de" y="84.384289"/>
      </g>
     </g>
     <g id="text_15">
      <!-- 175 -->
      <g transform="translate(31.5125 88.183508)scale(0.1 -0.1)">
       <use xlink:href="#DejaVuSans-49"/>
       <use x="63.623047" xlink:href="#DejaVuSans-55"/>
       <use x="127.246094" xlink:href="#DejaVuSans-53"/>
      </g>
     </g>
    </g>
    <g id="ytick_9">
     <g id="line2d_15">
      <g>
       <use style="stroke:#000000;stroke-width:0.8;" x="57.6" xlink:href="#ma057c5a7de" y="54.053296"/>
      </g>
     </g>
     <g id="text_16">
      <!-- 200 -->
      <g transform="translate(31.5125 57.852515)scale(0.1 -0.1)">
       <use xlink:href="#DejaVuSans-50"/>
       <use x="63.623047" xlink:href="#DejaVuSans-48"/>
       <use x="127.246094" xlink:href="#DejaVuSans-48"/>
      </g>
     </g>
    </g>
    <g id="text_17">
     <!-- Čas nalaganja 1 slike [ms] -->
     <defs>
      <path d="M 64.40625 67.28125 
L 64.40625 56.890625 
Q 59.421875 61.53125 53.78125 63.8125 
Q 48.140625 66.109375 41.796875 66.109375 
Q 29.296875 66.109375 22.65625 58.46875 
Q 16.015625 50.828125 16.015625 36.375 
Q 16.015625 21.96875 22.65625 14.328125 
Q 29.296875 6.6875 41.796875 6.6875 
Q 48.140625 6.6875 53.78125 8.984375 
Q 59.421875 11.28125 64.40625 15.921875 
L 64.40625 5.609375 
Q 59.234375 2.09375 53.4375 0.328125 
Q 47.65625 -1.421875 41.21875 -1.421875 
Q 24.65625 -1.421875 15.125 8.703125 
Q 5.609375 18.84375 5.609375 36.375 
Q 5.609375 53.953125 15.125 64.078125 
Q 24.65625 74.21875 41.21875 74.21875 
Q 47.75 74.21875 53.53125 72.484375 
Q 59.328125 70.75 64.40625 67.28125 
z
M 35.109375 79.84375 
L 24.8125 92.828125 
L 31.59375 92.828125 
L 39.703125 84.140625 
L 47.796875 92.828125 
L 54.59375 92.828125 
L 44.28125 79.84375 
z
" id="DejaVuSans-268"/>
      <path d="M 44.28125 53.078125 
L 44.28125 44.578125 
Q 40.484375 46.53125 36.375 47.5 
Q 32.28125 48.484375 27.875 48.484375 
Q 21.1875 48.484375 17.84375 46.4375 
Q 14.5 44.390625 14.5 40.28125 
Q 14.5 37.15625 16.890625 35.375 
Q 19.28125 33.59375 26.515625 31.984375 
L 29.59375 31.296875 
Q 39.15625 29.25 43.1875 25.515625 
Q 47.21875 21.78125 47.21875 15.09375 
Q 47.21875 7.46875 41.1875 3.015625 
Q 35.15625 -1.421875 24.609375 -1.421875 
Q 20.21875 -1.421875 15.453125 -0.5625 
Q 10.6875 0.296875 5.421875 2 
L 5.421875 11.28125 
Q 10.40625 8.6875 15.234375 7.390625 
Q 20.0625 6.109375 24.8125 6.109375 
Q 31.15625 6.109375 34.5625 8.28125 
Q 37.984375 10.453125 37.984375 14.40625 
Q 37.984375 18.0625 35.515625 20.015625 
Q 33.0625 21.96875 24.703125 23.78125 
L 21.578125 24.515625 
Q 13.234375 26.265625 9.515625 29.90625 
Q 5.8125 33.546875 5.8125 39.890625 
Q 5.8125 47.609375 11.28125 51.796875 
Q 16.75 56 26.8125 56 
Q 31.78125 56 36.171875 55.265625 
Q 40.578125 54.546875 44.28125 53.078125 
z
" id="DejaVuSans-115"/>
      <path d="M 45.40625 27.984375 
Q 45.40625 37.75 41.375 43.109375 
Q 37.359375 48.484375 30.078125 48.484375 
Q 22.859375 48.484375 18.828125 43.109375 
Q 14.796875 37.75 14.796875 27.984375 
Q 14.796875 18.265625 18.828125 12.890625 
Q 22.859375 7.515625 30.078125 7.515625 
Q 37.359375 7.515625 41.375 12.890625 
Q 45.40625 18.265625 45.40625 27.984375 
z
M 54.390625 6.78125 
Q 54.390625 -7.171875 48.1875 -13.984375 
Q 42 -20.796875 29.203125 -20.796875 
Q 24.46875 -20.796875 20.265625 -20.09375 
Q 16.0625 -19.390625 12.109375 -17.921875 
L 12.109375 -9.1875 
Q 16.0625 -11.328125 19.921875 -12.34375 
Q 23.78125 -13.375 27.78125 -13.375 
Q 36.625 -13.375 41.015625 -8.765625 
Q 45.40625 -4.15625 45.40625 5.171875 
L 45.40625 9.625 
Q 42.625 4.78125 38.28125 2.390625 
Q 33.9375 0 27.875 0 
Q 17.828125 0 11.671875 7.65625 
Q 5.515625 15.328125 5.515625 27.984375 
Q 5.515625 40.671875 11.671875 48.328125 
Q 17.828125 56 27.875 56 
Q 33.9375 56 38.28125 53.609375 
Q 42.625 51.21875 45.40625 46.390625 
L 45.40625 54.6875 
L 54.390625 54.6875 
z
" id="DejaVuSans-103"/>
      <path d="M 9.421875 54.6875 
L 18.40625 54.6875 
L 18.40625 -0.984375 
Q 18.40625 -11.421875 14.421875 -16.109375 
Q 10.453125 -20.796875 1.609375 -20.796875 
L -1.8125 -20.796875 
L -1.8125 -13.1875 
L 0.59375 -13.1875 
Q 5.71875 -13.1875 7.5625 -10.8125 
Q 9.421875 -8.453125 9.421875 -0.984375 
z
M 9.421875 75.984375 
L 18.40625 75.984375 
L 18.40625 64.59375 
L 9.421875 64.59375 
z
" id="DejaVuSans-106"/>
      <path d="M 9.078125 75.984375 
L 18.109375 75.984375 
L 18.109375 31.109375 
L 44.921875 54.6875 
L 56.390625 54.6875 
L 27.390625 29.109375 
L 57.625 0 
L 45.90625 0 
L 18.109375 26.703125 
L 18.109375 0 
L 9.078125 0 
z
" id="DejaVuSans-107"/>
      <path d="M 8.59375 75.984375 
L 29.296875 75.984375 
L 29.296875 69 
L 17.578125 69 
L 17.578125 -6.203125 
L 29.296875 -6.203125 
L 29.296875 -13.1875 
L 8.59375 -13.1875 
z
" id="DejaVuSans-91"/>
      <path d="M 52 44.1875 
Q 55.375 50.25 60.0625 53.125 
Q 64.75 56 71.09375 56 
Q 79.640625 56 84.28125 50.015625 
Q 88.921875 44.046875 88.921875 33.015625 
L 88.921875 0 
L 79.890625 0 
L 79.890625 32.71875 
Q 79.890625 40.578125 77.09375 44.375 
Q 74.3125 48.1875 68.609375 48.1875 
Q 61.625 48.1875 57.5625 43.546875 
Q 53.515625 38.921875 53.515625 30.90625 
L 53.515625 0 
L 44.484375 0 
L 44.484375 32.71875 
Q 44.484375 40.625 41.703125 44.40625 
Q 38.921875 48.1875 33.109375 48.1875 
Q 26.21875 48.1875 22.15625 43.53125 
Q 18.109375 38.875 18.109375 30.90625 
L 18.109375 0 
L 9.078125 0 
L 9.078125 54.6875 
L 18.109375 54.6875 
L 18.109375 46.1875 
Q 21.1875 51.21875 25.484375 53.609375 
Q 29.78125 56 35.6875 56 
Q 41.65625 56 45.828125 52.96875 
Q 50 49.953125 52 44.1875 
z
" id="DejaVuSans-109"/>
      <path d="M 30.421875 75.984375 
L 30.421875 -13.1875 
L 9.71875 -13.1875 
L 9.71875 -6.203125 
L 21.390625 -6.203125 
L 21.390625 69 
L 9.71875 69 
L 9.71875 75.984375 
z
" id="DejaVuSans-93"/>
     </defs>
     <g transform="translate(25.432812 240.500656)rotate(-90)scale(0.1 -0.1)">
      <use xlink:href="#DejaVuSans-268"/>
      <use x="69.824219" xlink:href="#DejaVuSans-97"/>
      <use x="131.103516" xlink:href="#DejaVuSans-115"/>
      <use x="183.203125" xlink:href="#DejaVuSans-32"/>
      <use x="214.990234" xlink:href="#DejaVuSans-110"/>
      <use x="278.369141" xlink:href="#DejaVuSans-97"/>
      <use x="339.648438" xlink:href="#DejaVuSans-108"/>
      <use x="367.431641" xlink:href="#DejaVuSans-97"/>
      <use x="428.710938" xlink:href="#DejaVuSans-103"/>
      <use x="492.1875" xlink:href="#DejaVuSans-97"/>
      <use x="553.466797" xlink:href="#DejaVuSans-110"/>
      <use x="616.845703" xlink:href="#DejaVuSans-106"/>
      <use x="644.628906" xlink:href="#DejaVuSans-97"/>
      <use x="705.908203" xlink:href="#DejaVuSans-32"/>
      <use x="737.695312" xlink:href="#DejaVuSans-49"/>
      <use x="801.318359" xlink:href="#DejaVuSans-32"/>
      <use x="833.105469" xlink:href="#DejaVuSans-115"/>
      <use x="885.205078" xlink:href="#DejaVuSans-108"/>
      <use x="912.988281" xlink:href="#DejaVuSans-105"/>
      <use x="940.771484" xlink:href="#DejaVuSans-107"/>
      <use x="998.634766" xlink:href="#DejaVuSans-101"/>
      <use x="1060.158203" xlink:href="#DejaVuSans-32"/>
      <use x="1091.945312" xlink:href="#DejaVuSans-91"/>
      <use x="1130.958984" xlink:href="#DejaVuSans-109"/>
      <use x="1228.371094" xlink:href="#DejaVuSans-115"/>
      <use x="1280.470703" xlink:href="#DejaVuSans-93"/>
     </g>
    </g>
   </g>
   <g id="line2d_16">
    <path clip-path="url(#pcf55fedaaf)" d="M 73.832727 118.355001 
L 74.483338 293.906181 
L 75.133948 294.612625 
L 76.435169 295.004718 
L 77.085779 295.488 
L 77.736389 294.962263 
L 78.386999 294.27476 
L 79.68822 295.488 
L 80.989441 295.488 
L 81.640051 295.05506 
L 82.290661 294.27476 
L 82.941272 294.963356 
L 83.591882 295.204911 
L 84.242492 294.738646 
L 84.893103 294.775881 
L 85.543713 295.238215 
L 87.495544 295.135607 
L 88.146154 294.88138 
L 88.796764 294.88138 
L 90.097985 295.488 
L 90.748595 294.921821 
L 91.399206 295.081895 
L 92.049816 295.488 
L 92.700426 295.18469 
L 93.351037 295.273899 
L 94.001647 295.083587 
L 94.652257 53.568 
L 95.302868 294.88138 
L 95.953478 295.125279 
L 96.604088 294.906539 
L 97.254698 295.488 
L 97.905309 295.043145 
L 102.459581 295.245352 
L 103.110191 295.18469 
L 103.760802 295.488 
L 104.411412 294.977162 
L 105.062022 295.285793 
L 105.712633 294.88138 
L 106.363243 295.488 
L 107.664463 295.488 
L 108.315074 295.164469 
L 108.965684 294.27476 
L 109.616294 292.487818 
L 110.266905 295.250355 
L 110.917515 294.982483 
L 112.218736 294.88138 
L 112.869346 295.164469 
L 113.519956 294.168336 
L 114.170567 293.994782 
L 114.821177 294.88138 
L 115.471787 295.124028 
L 116.122398 294.27476 
L 116.773008 295.180851 
L 117.423618 294.27476 
L 118.074228 295.214043 
L 118.724839 295.488 
L 119.375449 295.043145 
L 120.026059 294.27476 
L 120.67667 295.033035 
L 121.32728 295.033035 
L 121.97789 295.222604 
L 122.628501 295.135769 
L 123.279111 295.285793 
L 123.929721 294.27476 
L 124.580332 295.083587 
L 125.230942 295.083587 
L 125.881552 294.520297 
L 126.532163 294.27476 
L 127.182773 295.04232 
L 127.833383 295.061589 
L 128.483993 292.537978 
L 129.134604 295.168192 
L 129.785214 295.110548 
L 130.435824 295.285793 
L 131.086435 294.88138 
L 132.387655 295.243074 
L 133.038266 295.337908 
L 133.688876 292.581868 
L 134.339486 295.066004 
L 135.640707 295.262863 
L 136.941927 295.176024 
L 137.592538 295.488 
L 138.243148 295.059798 
L 138.893758 295.242281 
L 139.544369 295.252371 
L 140.194979 294.88138 
L 141.4962 295.488 
L 142.14681 295.166848 
L 142.79742 295.039629 
L 143.448031 294.27476 
L 144.098641 295.180646 
L 144.749251 295.261461 
L 145.399862 295.201541 
L 146.050472 294.88138 
L 146.701082 295.083587 
L 147.351692 295.134138 
L 148.652913 295.488 
L 149.303523 295.285793 
L 149.954134 295.488 
L 151.255354 295.083587 
L 151.905965 295.488 
L 152.556575 295.285793 
L 153.207185 295.488 
L 153.857796 295.488 
L 154.508406 295.196017 
L 155.159016 292.581868 
L 155.809627 294.88138 
L 157.110847 295.488 
L 157.761457 294.88138 
L 158.412068 295.488 
L 159.062678 295.270454 
L 159.713288 292.632027 
L 160.363899 295.285793 
L 161.014509 295.033035 
L 161.665119 295.488 
L 162.31573 294.88138 
L 162.96634 295.059798 
L 163.61695 295.488 
L 164.267561 294.27476 
L 164.918171 295.200325 
L 166.219392 295.059798 
L 166.870002 295.083587 
L 167.520612 294.88138 
L 168.171222 295.336345 
L 170.123053 295.12976 
L 170.773664 292.544248 
L 171.424274 295.488 
L 172.074884 295.066004 
L 172.725495 295.488 
L 174.026715 295.021369 
L 174.677326 295.488 
L 175.327936 295.118753 
L 175.978546 294.27476 
L 176.629156 295.488 
L 177.279767 294.88138 
L 177.930377 295.01756 
L 178.580987 294.88138 
L 180.532818 295.488 
L 181.183429 289.411775 
L 181.834039 295.110548 
L 182.484649 293.824032 
L 183.13526 295.488 
L 183.78587 294.88138 
L 184.43648 295.151245 
L 185.087091 295.188497 
L 185.737701 295.488 
L 186.388311 295.083587 
L 187.038921 295.300386 
L 188.990752 295.094517 
L 189.641363 295.083587 
L 190.291973 64.487157 
L 190.942583 295.237525 
L 191.593194 295.200325 
L 192.894414 295.488 
L 193.545025 295.292316 
L 194.195635 295.236291 
L 194.846245 295.386897 
L 195.496856 295.170846 
L 196.147466 295.488 
L 197.448686 294.88138 
L 198.749907 295.260518 
L 199.400517 295.206085 
L 200.051128 64.972453 
L 200.701738 295.021369 
L 201.352348 295.488 
L 202.002959 295.264642 
L 202.653569 295.285793 
L 203.304179 295.488 
L 203.95479 295.488 
L 204.6054 295.193574 
L 205.25601 295.131165 
L 205.906621 295.22229 
L 207.858451 295.187197 
L 209.159672 295.162802 
L 209.810282 292.585003 
L 210.460893 295.176024 
L 211.111503 294.27476 
L 211.762113 291.284786 
L 212.412724 295.083587 
L 213.063334 295.033035 
L 213.713944 294.27476 
L 214.364555 295.124028 
L 215.015165 295.488 
L 215.665775 294.88138 
L 216.316385 295.134138 
L 217.617606 295.488 
L 218.268216 294.88138 
L 218.918827 295.18469 
L 219.569437 294.27476 
L 220.220047 295.083587 
L 220.870658 295.083587 
L 221.521268 295.214043 
L 222.171878 295.182183 
L 222.822489 295.264361 
L 223.473099 295.219634 
L 224.123709 294.88138 
L 224.77432 295.386897 
L 225.42493 295.134138 
L 226.07554 294.27476 
L 226.72615 295.488 
L 227.376761 295.488 
L 228.027371 295.18469 
L 228.677981 295.488 
L 229.328592 295.204911 
L 229.979202 295.273899 
L 230.629812 295.083587 
L 231.280423 295.197224 
L 231.931033 295.124028 
L 232.581643 295.386897 
L 233.232254 295.235242 
L 233.882864 295.21112 
L 234.533474 295.488 
L 235.184085 295.345266 
L 235.834695 294.88138 
L 237.135915 294.88138 
L 237.786526 295.488 
L 238.437136 294.27476 
L 239.087746 294.845697 
L 240.388967 295.488 
L 241.039577 295.488 
L 241.690188 295.18469 
L 244.943239 295.246359 
L 245.59385 295.366676 
L 246.24446 295.137509 
L 247.54568 295.213879 
L 248.196291 295.18469 
L 248.846901 294.27476 
L 249.497511 295.222604 
L 250.148122 292.05519 
L 250.798732 294.27476 
L 251.449342 294.982483 
L 252.099953 295.070949 
L 252.750563 295.024114 
L 253.401173 295.231995 
L 254.702394 295.164469 
L 255.353004 294.27476 
L 256.003615 295.18469 
L 256.654225 295.488 
L 257.304835 292.509763 
L 257.955445 295.180851 
L 258.606056 294.952747 
L 259.256666 295.135769 
L 259.907276 294.88138 
L 260.557887 295.336345 
L 261.208497 295.188497 
L 262.509718 295.232581 
L 263.160328 295.488 
L 263.810938 295.19727 
L 264.461549 295.488 
L 265.112159 295.488 
L 265.762769 295.124028 
L 266.413379 295.488 
L 267.06399 295.488 
L 267.7146 291.025214 
L 268.36521 295.165812 
L 269.666431 295.204911 
L 270.967652 295.208022 
L 271.618262 294.982483 
L 272.268872 294.27476 
L 272.919483 295.488 
L 273.570093 295.488 
L 274.871314 294.88138 
L 275.521924 292.547383 
L 276.172534 295.231682 
L 276.823144 295.033035 
L 277.473755 295.104872 
L 278.124365 294.88138 
L 278.774975 295.083587 
L 279.425586 295.488 
L 280.076196 295.272995 
L 280.726806 292.528573 
L 281.377417 295.225678 
L 282.028027 295.137509 
L 282.678637 295.222604 
L 283.329248 294.88138 
L 284.630468 295.488 
L 286.582299 295.488 
L 287.232909 294.88138 
L 287.88352 295.488 
L 288.53413 295.488 
L 289.18474 295.108863 
L 289.835351 65.093777 
L 290.485961 292.566193 
L 291.136571 295.345266 
L 291.787182 295.178345 
L 292.437792 295.285793 
L 293.088402 295.108863 
L 293.739013 294.334184 
L 294.389623 295.488 
L 295.040233 295.488 
L 295.690844 295.131165 
L 296.992064 295.134138 
L 297.642674 295.488 
L 298.293285 295.029665 
L 298.943895 292.585003 
L 299.594505 295.488 
L 300.245116 295.196208 
L 300.895726 295.095481 
L 302.196947 295.18469 
L 302.847557 295.095481 
L 303.498167 295.488 
L 304.799388 295.488 
L 305.449998 295.152103 
L 306.100608 295.203726 
L 306.751219 295.488 
L 308.052439 295.488 
L 308.70305 295.18469 
L 309.35366 295.134138 
L 310.00427 295.488 
L 310.654881 295.488 
L 311.956101 294.27476 
L 313.257322 295.488 
L 313.907932 295.25278 
L 314.558543 294.88138 
L 315.209153 295.18469 
L 315.859763 294.88138 
L 316.510373 295.146776 
L 317.160984 292.497223 
L 317.811594 295.189505 
L 318.462204 295.028936 
L 319.112815 295.131165 
L 319.763425 292.503493 
L 320.414035 295.177765 
L 321.715256 295.175061 
L 322.365866 295.488 
L 323.667087 294.88138 
L 324.317697 295.043145 
L 324.968308 292.509763 
L 325.618918 295.095481 
L 326.269528 295.096632 
L 326.920138 295.221188 
L 327.570749 295.488 
L 328.221359 295.488 
L 328.871969 294.88138 
L 329.52258 292.544248 
L 330.17319 295.204911 
L 330.8238 294.88138 
L 331.474411 295.190983 
L 332.125021 295.17588 
L 332.775631 295.488 
L 333.426242 295.203726 
L 335.378073 295.043145 
L 336.028683 295.162802 
L 336.679293 295.150709 
L 337.329903 295.488 
L 337.980514 295.285793 
L 338.631124 292.600678 
L 339.281734 295.488 
L 340.582955 294.88138 
L 341.233565 294.88138 
L 341.884176 295.488 
L 342.534786 295.126479 
L 343.185396 64.851129 
L 343.836007 295.108863 
L 344.486617 295.488 
L 345.137227 294.88138 
L 345.787837 295.145675 
L 346.438448 294.88138 
L 347.089058 294.982483 
L 347.739668 295.222604 
L 348.390279 295.134138 
L 349.040889 295.202532 
L 349.691499 295.488 
L 350.34211 294.27476 
L 350.99272 295.488 
L 351.64333 294.975743 
L 352.293941 292.512898 
L 352.944551 295.18469 
L 354.245772 294.88138 
L 354.896382 295.218955 
L 355.546992 295.192888 
L 356.197602 292.547383 
L 356.848213 295.18469 
L 357.498823 295.488 
L 358.149433 295.235242 
L 361.402485 295.170247 
L 364.655537 295.152963 
L 365.306147 295.488 
L 365.956757 295.196208 
L 366.607367 292.581868 
L 367.257978 294.27476 
L 367.908588 295.135607 
L 369.860419 295.202532 
L 370.511029 295.083587 
L 371.16164 295.200997 
L 371.81225 294.88138 
L 372.46286 295.488 
L 373.113471 292.531708 
L 373.764081 295.114695 
L 374.414691 295.033035 
L 375.065302 295.488 
L 376.366522 295.147441 
L 377.017132 295.083587 
L 377.667743 292.522303 
L 378.318353 292.556788 
L 378.968963 295.488 
L 379.619574 295.208022 
L 380.920794 295.166848 
L 381.571405 295.285793 
L 382.222015 294.88138 
L 382.872625 295.488 
L 383.523236 63.273918 
L 384.173846 295.235242 
L 384.824456 294.982483 
L 385.475066 294.27476 
L 386.125677 295.22534 
L 386.776287 295.488 
L 387.426897 295.166848 
L 388.077508 289.329054 
L 388.728118 294.88138 
L 389.378728 295.202532 
L 390.029339 294.88138 
L 390.679949 295.488 
L 391.330559 294.88138 
L 392.63178 295.488 
L 393.28239 295.211065 
L 393.933001 295.196017 
L 394.583611 295.488 
L 395.234221 295.214043 
L 397.186052 295.124028 
L 397.836662 295.203726 
L 398.487273 295.488 
L 398.487273 295.488 
" style="fill:none;stroke:#1f77b4;stroke-linecap:square;stroke-width:1.5;"/>
   </g>
   <g id="patch_3">
    <path d="M 57.6 307.584 
L 57.6 41.472 
" style="fill:none;stroke:#000000;stroke-linecap:square;stroke-linejoin:miter;stroke-width:0.8;"/>
   </g>
   <g id="patch_4">
    <path d="M 414.72 307.584 
L 414.72 41.472 
" style="fill:none;stroke:#000000;stroke-linecap:square;stroke-linejoin:miter;stroke-width:0.8;"/>
   </g>
   <g id="patch_5">
    <path d="M 57.6 307.584 
L 414.72 307.584 
" style="fill:none;stroke:#000000;stroke-linecap:square;stroke-linejoin:miter;stroke-width:0.8;"/>
   </g>
   <g id="patch_6">
    <path d="M 57.6 41.472 
L 414.72 41.472 
" style="fill:none;stroke:#000000;stroke-linecap:square;stroke-linejoin:miter;stroke-width:0.8;"/>
   </g>
  </g>
 </g>
 <defs>
  <clipPath id="pcf55fedaaf">
   <rect height="266.112" width="357.12" x="57.6" y="41.472"/>
  </clipPath>
 </defs>
</svg>
