<?xml version="1.0" encoding="utf-8"?>
<!-- Generator: Adobe Illustrator 19.2.1, SVG Export Plug-In . SVG Version: 6.00 Build 0)  -->
<svg version="1.1" id="Layer_1" xmlns="http://www.w3.org/2000/svg" xmlns:xlink="http://www.w3.org/1999/xlink" x="0px" y="0px"
	 viewBox="0 0 397.3 295.6" style="enable-background:new 0 0 397.3 295.6;" xml:space="preserve">
<style type="text/css">
	.st0{fill:#FFFFFF;}
	.st1{stroke:#000000;stroke-width:0.8;stroke-linejoin:round;}
	.st2{clip-path:url(#SVGID_2_);fill:none;stroke:#1F77B4;stroke-width:1.5;stroke-linecap:square;stroke-linejoin:round;}
	.st3{fill:none;stroke:#000000;stroke-width:0.8;stroke-linecap:square;}
</style>
<g id="figure_1">
	<g id="axes_1">
		<g id="patch_2">
			<path class="st0" d="M40.2,266.1h357.1V0H40.2V266.1z"/>
		</g>
		<g id="matplotlib.axis_1">
			<g id="xtick_1">
				<g id="line2d_1">
					<g>
						<g>
							<path id="ma47eb3db51" class="st1" d="M56.4,266.1v3.5"/>
						</g>
					</g>
				</g>
				<g id="text_1">
					<g transform="translate(70.651477 322.182437)scale(0.1 -0.1)">
						<g>
							<path id="DejaVuSans-48" d="M-142.6,481.1c-5.1,0-8.9-2.5-11.5-7.5c-2.6-5-3.8-12.5-3.8-22.5c0-10,1.3-17.5,3.8-22.5
								c2.6-5,6.4-7.5,11.5-7.5c5.1,0,8.9,2.5,11.5,7.5c2.6,5,3.8,12.5,3.8,22.5c0,10-1.3,17.5-3.8,22.5
								C-133.6,478.6-137.4,481.1-142.6,481.1z M-142.6,488.9c8.2,0,14.4-3.2,18.7-9.7c4.3-6.5,6.5-15.8,6.5-28.1
								c0-12.3-2.2-21.6-6.5-28.1c-4.3-6.5-10.6-9.7-18.7-9.7c-8.2,0-14.4,3.2-18.7,9.7c-4.3,6.5-6.5,15.8-6.5,28.1
								c0,12.3,2.2,21.7,6.5,28.1C-157,485.7-150.7,488.9-142.6,488.9z"/>
						</g>
					</g>
				</g>
			</g>
			<g id="xtick_2">
				<g id="line2d_2">
					<g>
						<g>
							<path id="ma47eb3db51_1_" class="st1" d="M121.5,266.1v3.5"/>
						</g>
					</g>
				</g>
				<g id="text_2">
					<g transform="translate(129.350008 322.182437)scale(0.1 -0.1)">
						<g>
							<path id="DejaVuSans-49" d="M-161.9,423h16.1v55.6l-17.5-3.5v9l17.4,3.5h9.9V423h16.1v-8.3h-42V423z"/>
						</g>
						<g>
							<path id="DejaVuSans-48_1_" d="M-78.9,481.1c-5.1,0-8.9-2.5-11.5-7.5c-2.6-5-3.8-12.5-3.8-22.5c0-10,1.3-17.5,3.8-22.5
								c2.6-5,6.4-7.5,11.5-7.5c5.1,0,8.9,2.5,11.5,7.5c2.6,5,3.8,12.5,3.8,22.5c0,10-1.3,17.5-3.8,22.5
								C-70,478.6-73.8,481.1-78.9,481.1z M-78.9,488.9c8.2,0,14.4-3.2,18.7-9.7c4.3-6.5,6.5-15.8,6.5-28.1
								c0-12.3-2.2-21.6-6.5-28.1c-4.3-6.5-10.6-9.7-18.7-9.7c-8.2,0-14.4,3.2-18.7,9.7c-4.3,6.5-6.5,15.8-6.5,28.1
								c0,12.3,2.2,21.7,6.5,28.1C-93.3,485.7-87.1,488.9-78.9,488.9z"/>
						</g>
						<g>
							<path id="DejaVuSans-48_2_" d="M-15.3,481.1c-5.1,0-8.9-2.5-11.5-7.5c-2.6-5-3.8-12.5-3.8-22.5c0-10,1.3-17.5,3.8-22.5
								c2.6-5,6.4-7.5,11.5-7.5c5.1,0,8.9,2.5,11.5,7.5c2.6,5,3.8,12.5,3.8,22.5c0,10-1.3,17.5-3.8,22.5
								C-6.4,478.6-10.2,481.1-15.3,481.1z M-15.3,488.9c8.2,0,14.4-3.2,18.7-9.7c4.3-6.5,6.5-15.8,6.5-28.1
								c0-12.3-2.2-21.6-6.5-28.1c-4.3-6.5-10.6-9.7-18.7-9.7c-8.2,0-14.4,3.2-18.7,9.7c-4.3,6.5-6.5,15.8-6.5,28.1
								c0,12.3,2.2,21.7,6.5,28.1C-29.7,485.7-23.5,488.9-15.3,488.9z"/>
						</g>
					</g>
				</g>
			</g>
			<g id="xtick_3">
				<g id="line2d_3">
					<g>
						<g>
							<path id="ma47eb3db51_2_" class="st1" d="M186.5,266.1v3.5"/>
						</g>
					</g>
				</g>
				<g id="text_3">
					<g transform="translate(194.41104 322.182437)scale(0.1 -0.1)">
						<g>
							<path id="DejaVuSans-50" d="M-155.2,423h34.4v-8.3H-167v8.3c3.7,3.9,8.8,9.1,15.3,15.6c6.5,6.5,10.5,10.7,12.2,12.6
								c3.2,3.5,5.4,6.5,6.6,9c1.3,2.5,1.9,4.9,1.9,7.3c0,3.9-1.4,7-4.1,9.5c-2.7,2.4-6.3,3.7-10.6,3.7c-3.1,0-6.4-0.5-9.8-1.6
								c-3.4-1.1-7.1-2.7-11-4.9v10c4,1.6,7.7,2.8,11.1,3.6c3.5,0.8,6.6,1.2,9.5,1.2c7.6,0,13.6-1.9,18.1-5.7
								c4.5-3.8,6.7-8.8,6.7-15.1c0-3-0.6-5.8-1.7-8.5c-1.1-2.7-3.2-5.8-6.1-9.5c-0.8-0.9-3.4-3.7-7.8-8.2
								C-141.1,437.4-147.2,431.1-155.2,423z"/>
						</g>
						<g>
							<path id="DejaVuSans-48_3_" d="M-78.9,481.1c-5.1,0-8.9-2.5-11.5-7.5c-2.6-5-3.8-12.5-3.8-22.5c0-10,1.3-17.5,3.8-22.5
								c2.6-5,6.4-7.5,11.5-7.5c5.1,0,8.9,2.5,11.5,7.5c2.6,5,3.8,12.5,3.8,22.5c0,10-1.3,17.5-3.8,22.5
								C-70,478.6-73.8,481.1-78.9,481.1z M-78.9,488.9c8.2,0,14.4-3.2,18.7-9.7c4.3-6.5,6.5-15.8,6.5-28.1
								c0-12.3-2.2-21.6-6.5-28.1c-4.3-6.5-10.6-9.7-18.7-9.7c-8.2,0-14.4,3.2-18.7,9.7c-4.3,6.5-6.5,15.8-6.5,28.1
								c0,12.3,2.2,21.7,6.5,28.1C-93.3,485.7-87.1,488.9-78.9,488.9z"/>
						</g>
						<g>
							<path id="DejaVuSans-48_4_" d="M-15.3,481.1c-5.1,0-8.9-2.5-11.5-7.5c-2.6-5-3.8-12.5-3.8-22.5c0-10,1.3-17.5,3.8-22.5
								c2.6-5,6.4-7.5,11.5-7.5c5.1,0,8.9,2.5,11.5,7.5c2.6,5,3.8,12.5,3.8,22.5c0,10-1.3,17.5-3.8,22.5
								C-6.4,478.6-10.2,481.1-15.3,481.1z M-15.3,488.9c8.2,0,14.4-3.2,18.7-9.7c4.3-6.5,6.5-15.8,6.5-28.1
								c0-12.3-2.2-21.6-6.5-28.1c-4.3-6.5-10.6-9.7-18.7-9.7c-8.2,0-14.4,3.2-18.7,9.7c-4.3,6.5-6.5,15.8-6.5,28.1
								c0,12.3,2.2,21.7,6.5,28.1C-29.7,485.7-23.5,488.9-15.3,488.9z"/>
						</g>
					</g>
				</g>
			</g>
			<g id="xtick_4">
				<g id="line2d_4">
					<g>
						<g>
							<path id="ma47eb3db51_3_" class="st1" d="M251.6,266.1v3.5"/>
						</g>
					</g>
				</g>
				<g id="text_4">
					<g transform="translate(259.472071 322.182437)scale(0.1 -0.1)">
						<g>
							<path id="DejaVuSans-51" d="M-133.8,454c4.7-1,8.4-3.1,11-6.3c2.7-3.2,4-7.1,4-11.8c0-7.2-2.5-12.8-7.4-16.7
								c-4.9-3.9-12-5.9-21.1-5.9c-3.1,0-6.2,0.3-9.4,0.9s-6.6,1.5-10,2.7v9.5c2.7-1.6,5.7-2.8,9-3.6c3.3-0.8,6.7-1.2,10.2-1.2
								c6.2,0,10.9,1.2,14.1,3.7s4.9,6,4.9,10.6c0,4.3-1.5,7.7-4.5,10.1c-3,2.4-7.2,3.6-12.6,3.6h-8.5v8.1h8.9c4.8,0,8.6,1,11.1,2.9
								s3.9,4.7,3.9,8.4c0,3.7-1.3,6.6-4,8.6c-2.6,2-6.4,3-11.4,3c-2.7,0-5.6-0.3-8.7-0.9c-3.1-0.6-6.5-1.5-10.2-2.7v8.8
								c3.8,1,7.3,1.8,10.5,2.3c3.3,0.5,6.4,0.8,9.3,0.8c7.5,0,13.4-1.7,17.8-5.1c4.4-3.4,6.5-8,6.5-13.8c0-4-1.2-7.5-3.5-10.2
								S-129.5,455.1-133.8,454z"/>
						</g>
						<g>
							<path id="DejaVuSans-48_5_" d="M-78.9,481.1c-5.1,0-8.9-2.5-11.5-7.5c-2.6-5-3.8-12.5-3.8-22.5c0-10,1.3-17.5,3.8-22.5
								c2.6-5,6.4-7.5,11.5-7.5c5.1,0,8.9,2.5,11.5,7.5c2.6,5,3.8,12.5,3.8,22.5c0,10-1.3,17.5-3.8,22.5
								C-70,478.6-73.8,481.1-78.9,481.1z M-78.9,488.9c8.2,0,14.4-3.2,18.7-9.7c4.3-6.5,6.5-15.8,6.5-28.1
								c0-12.3-2.2-21.6-6.5-28.1c-4.3-6.5-10.6-9.7-18.7-9.7c-8.2,0-14.4,3.2-18.7,9.7c-4.3,6.5-6.5,15.8-6.5,28.1
								c0,12.3,2.2,21.7,6.5,28.1C-93.3,485.7-87.1,488.9-78.9,488.9z"/>
						</g>
						<g>
							<path id="DejaVuSans-48_6_" d="M-15.3,481.1c-5.1,0-8.9-2.5-11.5-7.5c-2.6-5-3.8-12.5-3.8-22.5c0-10,1.3-17.5,3.8-22.5
								c2.6-5,6.4-7.5,11.5-7.5c5.1,0,8.9,2.5,11.5,7.5c2.6,5,3.8,12.5,3.8,22.5c0,10-1.3,17.5-3.8,22.5
								C-6.4,478.6-10.2,481.1-15.3,481.1z M-15.3,488.9c8.2,0,14.4-3.2,18.7-9.7c4.3-6.5,6.5-15.8,6.5-28.1
								c0-12.3-2.2-21.6-6.5-28.1c-4.3-6.5-10.6-9.7-18.7-9.7c-8.2,0-14.4,3.2-18.7,9.7c-4.3,6.5-6.5,15.8-6.5,28.1
								c0,12.3,2.2,21.7,6.5,28.1C-29.7,485.7-23.5,488.9-15.3,488.9z"/>
						</g>
					</g>
				</g>
			</g>
			<g id="xtick_5">
				<g id="line2d_5">
					<g>
						<g>
							<path id="ma47eb3db51_4_" class="st1" d="M316.6,266.1v3.5"/>
						</g>
					</g>
				</g>
				<g id="text_5">
					<g transform="translate(324.533102 322.182437)scale(0.1 -0.1)">
						<g>
							<path id="DejaVuSans-52" d="M-136.5,479l-24.9-38.9h24.9V479z M-139.1,487.6h12.4v-47.5h10.4v-8.2h-10.4v-17.2h-9.8v17.2
								h-32.9v9.5L-139.1,487.6z"/>
						</g>
						<g>
							<path id="DejaVuSans-48_7_" d="M-78.9,481.1c-5.1,0-8.9-2.5-11.5-7.5c-2.6-5-3.8-12.5-3.8-22.5c0-10,1.3-17.5,3.8-22.5
								c2.6-5,6.4-7.5,11.5-7.5c5.1,0,8.9,2.5,11.5,7.5c2.6,5,3.8,12.5,3.8,22.5c0,10-1.3,17.5-3.8,22.5
								C-70,478.6-73.8,481.1-78.9,481.1z M-78.9,488.9c8.2,0,14.4-3.2,18.7-9.7c4.3-6.5,6.5-15.8,6.5-28.1
								c0-12.3-2.2-21.6-6.5-28.1c-4.3-6.5-10.6-9.7-18.7-9.7c-8.2,0-14.4,3.2-18.7,9.7c-4.3,6.5-6.5,15.8-6.5,28.1
								c0,12.3,2.2,21.7,6.5,28.1C-93.3,485.7-87.1,488.9-78.9,488.9z"/>
						</g>
						<g>
							<path id="DejaVuSans-48_8_" d="M-15.3,481.1c-5.1,0-8.9-2.5-11.5-7.5c-2.6-5-3.8-12.5-3.8-22.5c0-10,1.3-17.5,3.8-22.5
								c2.6-5,6.4-7.5,11.5-7.5c5.1,0,8.9,2.5,11.5,7.5c2.6,5,3.8,12.5,3.8,22.5c0,10-1.3,17.5-3.8,22.5
								C-6.4,478.6-10.2,481.1-15.3,481.1z M-15.3,488.9c8.2,0,14.4-3.2,18.7-9.7c4.3-6.5,6.5-15.8,6.5-28.1
								c0-12.3-2.2-21.6-6.5-28.1c-4.3-6.5-10.6-9.7-18.7-9.7c-8.2,0-14.4,3.2-18.7,9.7c-4.3,6.5-6.5,15.8-6.5,28.1
								c0,12.3,2.2,21.7,6.5,28.1C-29.7,485.7-23.5,488.9-15.3,488.9z"/>
						</g>
					</g>
				</g>
			</g>
			<g id="xtick_6">
				<g id="line2d_6">
					<g>
						<g>
							<path id="ma47eb3db51_5_" class="st1" d="M381.7,266.1v3.5"/>
						</g>
					</g>
				</g>
				<g id="text_6">
					<g transform="translate(389.594133 322.182437)scale(0.1 -0.1)">
						<g>
							<path id="DejaVuSans-53" d="M-163.5,487.6h38.7v-8.3h-29.7v-17.9c1.4,0.5,2.9,0.9,4.3,1.1c1.4,0.2,2.9,0.4,4.3,0.4
								c8.1,0,14.6-2.2,19.3-6.7c4.8-4.5,7.1-10.5,7.1-18.1c0-7.8-2.4-13.9-7.3-18.3c-4.9-4.3-11.8-6.5-20.7-6.5
								c-3.1,0-6.2,0.3-9.4,0.8c-3.2,0.5-6.4,1.3-9.8,2.3v9.9c2.9-1.6,6-2.8,9.1-3.6s6.4-1.2,9.9-1.2c5.6,0,10.1,1.5,13.4,4.4
								c3.3,3,4.9,7,4.9,12.1c0,5.1-1.6,9.1-4.9,12c-3.3,3-7.7,4.5-13.4,4.5c-2.6,0-5.3-0.3-7.9-0.9c-2.6-0.6-5.3-1.5-8-2.7V487.6z"
								/>
						</g>
						<g>
							<path id="DejaVuSans-48_9_" d="M-78.9,481.1c-5.1,0-8.9-2.5-11.5-7.5c-2.6-5-3.8-12.5-3.8-22.5c0-10,1.3-17.5,3.8-22.5
								c2.6-5,6.4-7.5,11.5-7.5c5.1,0,8.9,2.5,11.5,7.5c2.6,5,3.8,12.5,3.8,22.5c0,10-1.3,17.5-3.8,22.5
								C-70,478.6-73.8,481.1-78.9,481.1z M-78.9,488.9c8.2,0,14.4-3.2,18.7-9.7c4.3-6.5,6.5-15.8,6.5-28.1
								c0-12.3-2.2-21.6-6.5-28.1c-4.3-6.5-10.6-9.7-18.7-9.7c-8.2,0-14.4,3.2-18.7,9.7c-4.3,6.5-6.5,15.8-6.5,28.1
								c0,12.3,2.2,21.7,6.5,28.1C-93.3,485.7-87.1,488.9-78.9,488.9z"/>
						</g>
						<g>
							<path id="DejaVuSans-48_10_" d="M-15.3,481.1c-5.1,0-8.9-2.5-11.5-7.5c-2.6-5-3.8-12.5-3.8-22.5c0-10,1.3-17.5,3.8-22.5
								c2.6-5,6.4-7.5,11.5-7.5c5.1,0,8.9,2.5,11.5,7.5c2.6,5,3.8,12.5,3.8,22.5c0,10-1.3,17.5-3.8,22.5
								C-6.4,478.6-10.2,481.1-15.3,481.1z M-15.3,488.9c8.2,0,14.4-3.2,18.7-9.7c4.3-6.5,6.5-15.8,6.5-28.1
								c0-12.3-2.2-21.6-6.5-28.1c-4.3-6.5-10.6-9.7-18.7-9.7c-8.2,0-14.4,3.2-18.7,9.7c-4.3,6.5-6.5,15.8-6.5,28.1
								c0,12.3,2.2,21.7,6.5,28.1C-29.7,485.7-23.5,488.9-15.3,488.9z"/>
						</g>
					</g>
				</g>
			</g>
			<g id="text_7">
				<g transform="translate(167.010781 335.860562)scale(0.1 -0.1)">
					<g>
						<path id="DejaVuSans-353" d="M-130.1,467.8v-8.5c-2.5,1.3-5.2,2.3-7.9,2.9c-2.7,0.7-5.6,1-8.5,1c-4.5,0-7.8-0.7-10-2
							c-2.2-1.4-3.3-3.4-3.3-6.2c0-2.1,0.8-3.7,2.4-4.9s4.8-2.3,9.6-3.4l3.1-0.7c6.4-1.4,10.9-3.3,13.6-5.8s4-6,4-10.4
							c0-5.1-2-9.1-6-12.1c-4-3-9.5-4.4-16.6-4.4c-2.9,0-6,0.3-9.2,0.9c-3.2,0.6-6.5,1.4-10,2.6v9.3c3.3-1.7,6.6-3,9.8-3.9
							c3.2-0.9,6.4-1.3,9.6-1.3c4.2,0,7.5,0.7,9.8,2.2c2.3,1.4,3.4,3.5,3.4,6.1c0,2.4-0.8,4.3-2.5,5.6c-1.6,1.3-5.2,2.6-10.8,3.8
							l-3.1,0.7c-5.6,1.2-9.6,3-12.1,5.4c-2.5,2.4-3.7,5.8-3.7,10c0,5.1,1.8,9.1,5.5,11.9c3.6,2.8,8.8,4.2,15.5,4.2
							c3.3,0,6.4-0.2,9.4-0.7C-135.2,469.5-132.5,468.8-130.1,467.8z M-150.9,476.3l-12,18.4h6.8l8.8-12l8.8,12h6.8l-12-18.4H-150.9
							z"/>
					</g>
					<g>
						<path id="DejaVuSans-116" d="M-103.9,484.9v-15.5h18.5v-7h-18.5v-29.7c0-4.5,0.6-7.3,1.8-8.6s3.7-1.9,7.5-1.9h9.2v-7.5h-9.2
							c-6.9,0-11.7,1.3-14.4,3.9c-2.6,2.6-4,7.3-4,14.1v29.7h-6.6v7h6.6v15.5H-103.9z"/>
					</g>
					<g>
						<path id="DejaVuSans-101" d="M-26.8,444.3v-4.4h-41.3c0.4-6.2,2.3-10.9,5.6-14.1s8-4.9,13.9-4.9c3.4,0,6.8,0.4,10,1.3
							s6.5,2.1,9.7,3.8v-8.5c-3.2-1.4-6.5-2.4-9.9-3.1s-6.8-1.1-10.3-1.1c-8.7,0-15.6,2.5-20.7,7.6c-5.1,5.1-7.6,12-7.6,20.6
							c0,8.9,2.4,16,7.3,21.3c4.8,5.3,11.4,7.9,19.6,7.9c7.4,0,13.2-2.4,17.5-7.1C-29,458.9-26.8,452.4-26.8,444.3z M-35.8,447
							c-0.1,4.9-1.4,8.8-4.1,11.8c-2.7,2.9-6.2,4.4-10.7,4.4c-5,0-9-1.4-12-4.3c-3-2.8-4.7-6.8-5.2-12L-35.8,447z"/>
					</g>
					<g>
						<path id="DejaVuSans-118" d="M-18.5,469.4H-9l17.1-45.9l17.1,45.9h9.5l-20.5-54.7H2L-18.5,469.4z"/>
					</g>
					<g>
						<path id="DejaVuSans-105" d="M47.1,469.4h9v-54.7h-9V469.4z M47.1,490.7h9v-11.4h-9V490.7z"/>
					</g>
					<g>
						<path id="DejaVuSans-108" d="M74.9,490.7h9v-76h-9V490.7z"/>
					</g>
					<g>
						<path id="DejaVuSans-111" d="M123.8,463.1c-4.8,0-8.6-1.9-11.4-5.6c-2.8-3.8-4.2-8.9-4.2-15.5s1.4-11.7,4.2-15.5
							c2.8-3.8,6.6-5.6,11.5-5.6c4.8,0,8.6,1.9,11.4,5.7c2.8,3.8,4.2,8.9,4.2,15.4c0,6.5-1.4,11.6-4.2,15.4
							C132.4,461.2,128.6,463.1,123.8,463.1z M123.8,470.7c7.8,0,13.9-2.5,18.4-7.6c4.5-5.1,6.7-12.1,6.7-21.1
							c0-8.9-2.2-16-6.7-21.1c-4.5-5.1-10.6-7.6-18.4-7.6c-7.8,0-14,2.5-18.4,7.6c-4.4,5.1-6.7,12.1-6.7,21.1c0,9,2.2,16,6.7,21.1
							C109.9,468.2,116,470.7,123.8,470.7z"/>
					</g>
					<g>
						<path id="DejaVuSans-32" d="M154.4,414.7"/>
					</g>
					<g>
						<path id="DejaVuSans-122" d="M191.7,469.4h42.7v-8.2l-33.8-39.3h33.8v-7.2h-43.9v8.2l33.8,39.3h-32.6V469.4z"/>
					</g>
					<g>
						<path id="DejaVuSans-97" d="M273,442.2c-7.3,0-12.3-0.8-15.1-2.5c-2.8-1.7-4.2-4.5-4.2-8.5c0-3.2,1.1-5.7,3.2-7.6
							c2.1-1.9,5-2.8,8.6-2.8c5,0,9,1.8,12,5.3c3,3.5,4.5,8.2,4.5,14.1v2H273z M290.9,445.9v-31.2h-9v8.3c-2.1-3.3-4.6-5.8-7.7-7.3
							s-6.8-2.4-11.2-2.4c-5.6,0-10,1.6-13.4,4.7c-3.3,3.1-5,7.4-5,12.6c0,6.1,2.1,10.8,6.2,13.9c4.1,3.1,10.3,4.7,18.4,4.7h12.6
							v0.9c0,4.1-1.4,7.3-4.1,9.6s-6.5,3.4-11.5,3.4c-3.1,0-6.2-0.4-9.1-1.1c-3-0.8-5.8-1.9-8.5-3.4v8.3c3.3,1.3,6.5,2.2,9.6,2.8
							c3.1,0.6,6.1,1,9,1c7.9,0,13.8-2.1,17.7-6.2C288.9,460.5,290.9,454.3,290.9,445.9z"/>
					</g>
					<g>
						<path id="DejaVuSans-104" d="M354.9,447.7v-33h-9v32.7c0,5.2-1,9-3,11.6c-2,2.6-5,3.9-9.1,3.9c-4.9,0-8.7-1.5-11.5-4.6
							c-2.8-3.1-4.2-7.3-4.2-12.6v-30.9h-9v76h9v-29.8c2.2,3.3,4.7,5.8,7.6,7.4c2.9,1.6,6.3,2.4,10.1,2.4c6.3,0,11-1.9,14.3-5.8
							C353.2,461,354.9,455.3,354.9,447.7z"/>
					</g>
					<g>
						<path id="DejaVuSans-116_1_" d="M381.7,484.9v-15.5h18.5v-7h-18.5v-29.7c0-4.5,0.6-7.3,1.8-8.6s3.7-1.9,7.5-1.9h9.2v-7.5h-9.2
							c-6.9,0-11.7,1.3-14.4,3.9c-2.6,2.6-4,7.3-4,14.1v29.7H366v7h6.6v15.5H381.7z"/>
					</g>
					<g>
						<path id="DejaVuSans-101_1_" d="M458.8,444.3v-4.4h-41.3c0.4-6.2,2.3-10.9,5.6-14.1c3.3-3.2,8-4.9,13.9-4.9
							c3.4,0,6.8,0.4,10,1.3c3.2,0.8,6.5,2.1,9.7,3.8v-8.5c-3.2-1.4-6.5-2.4-9.9-3.1c-3.4-0.7-6.8-1.1-10.3-1.1
							c-8.7,0-15.6,2.5-20.7,7.6c-5.1,5.1-7.6,12-7.6,20.6c0,8.9,2.4,16,7.3,21.3c4.8,5.3,11.4,7.9,19.6,7.9
							c7.4,0,13.2-2.4,17.5-7.1C456.6,458.9,458.8,452.4,458.8,444.3z M449.8,447c-0.1,4.9-1.4,8.8-4.1,11.8
							c-2.7,2.9-6.2,4.4-10.7,4.4c-5,0-9-1.4-12-4.3c-3-2.8-4.7-6.8-5.2-12L449.8,447z"/>
					</g>
					<g>
						<path id="DejaVuSans-118_1_" d="M467.1,469.4h9.5l17.1-45.9l17.1,45.9h9.5l-20.5-54.7h-12.2L467.1,469.4z"/>
					</g>
					<g>
						<path id="DejaVuSans-44" d="M535,427.1h10.3v-8.4l-8-15.6H531l4,15.6V427.1z"/>
					</g>
					<g>
						<path id="DejaVuSans-32_1_" d="M555.1,414.7"/>
					</g>
					<g>
						<path id="DejaVuSans-107" d="M595.9,490.7h9v-44.9l26.8,23.6h11.5l-29-25.6l30.2-29.1h-11.7l-27.8,26.7v-26.7h-9V490.7z"/>
					</g>
					<g>
						<path id="DejaVuSans-117" d="M653.2,436.3v33.1h9v-32.8c0-5.2,1-9.1,3-11.7c2-2.6,5.1-3.9,9.1-3.9c4.8,0,8.7,1.5,11.5,4.6
							c2.8,3.1,4.2,7.3,4.2,12.7v31h9v-54.7h-9v8.4c-2.2-3.3-4.7-5.8-7.6-7.4c-2.9-1.6-6.2-2.4-10-2.4c-6.3,0-11.1,2-14.3,5.9
							C654.8,423.1,653.2,428.8,653.2,436.3z"/>
					</g>
					<g>
						<path id="DejaVuSans-109" d="M760.1,458.9c2.3,4,4.9,7,8.1,8.9s6.8,2.9,11,2.9c5.7,0,10.1-2,13.2-6c3.1-4,4.6-9.6,4.6-17v-33
							h-9v32.7c0,5.2-0.9,9.1-2.8,11.7c-1.9,2.5-4.7,3.8-8.5,3.8c-4.7,0-8.3-1.5-11-4.6c-2.7-3.1-4-7.3-4-12.6v-30.9h-9v32.7
							c0,5.3-0.9,9.2-2.8,11.7c-1.9,2.5-4.7,3.8-8.6,3.8c-4.6,0-8.2-1.6-11-4.7c-2.7-3.1-4-7.3-4-12.6v-30.9h-9v54.7h9v-8.5
							c2.1,3.4,4.5,5.8,7.4,7.4c2.9,1.6,6.3,2.4,10.2,2.4c4,0,7.4-1,10.1-3C756.7,465.7,758.7,462.8,760.1,458.9z"/>
					</g>
					<g>
						<path id="DejaVuSans-117_1_" d="M814,436.3v33.1h9v-32.8c0-5.2,1-9.1,3-11.7c2-2.6,5.1-3.9,9.1-3.9c4.8,0,8.7,1.5,11.5,4.6
							c2.8,3.1,4.2,7.3,4.2,12.7v31h9v-54.7h-9v8.4c-2.2-3.3-4.7-5.8-7.6-7.4c-2.9-1.6-6.2-2.4-10-2.4c-6.3,0-11.1,2-14.3,5.9
							C815.6,423.1,814,428.8,814,436.3z"/>
					</g>
					<g>
						<path id="DejaVuSans-108_1_" d="M878.3,490.7h9v-76h-9V490.7z"/>
					</g>
					<g>
						<path id="DejaVuSans-97_1_" d="M930.9,442.2c-7.3,0-12.3-0.8-15.1-2.5c-2.8-1.7-4.2-4.5-4.2-8.5c0-3.2,1.1-5.7,3.2-7.6
							c2.1-1.9,5-2.8,8.6-2.8c5,0,9,1.8,12,5.3c3,3.5,4.5,8.2,4.5,14.1v2H930.9z M948.9,445.9v-31.2h-9v8.3
							c-2.1-3.3-4.6-5.8-7.7-7.3s-6.8-2.4-11.2-2.4c-5.6,0-10,1.6-13.4,4.7c-3.3,3.1-5,7.4-5,12.6c0,6.1,2.1,10.8,6.2,13.9
							c4.1,3.1,10.3,4.7,18.4,4.7h12.6v0.9c0,4.1-1.4,7.3-4.1,9.6s-6.5,3.4-11.5,3.4c-3.1,0-6.2-0.4-9.1-1.1c-3-0.8-5.8-1.9-8.5-3.4
							v8.3c3.3,1.3,6.5,2.2,9.6,2.8c3.1,0.6,6.1,1,9,1c7.9,0,13.8-2.1,17.7-6.2C946.9,460.5,948.9,454.3,948.9,445.9z"/>
					</g>
					<g>
						<path id="DejaVuSans-116_2_" d="M976.2,484.9v-15.5h18.5v-7h-18.5v-29.7c0-4.5,0.6-7.3,1.8-8.6s3.7-1.9,7.5-1.9h9.2v-7.5h-9.2
							c-6.9,0-11.7,1.3-14.4,3.9c-2.6,2.6-4,7.3-4,14.1v29.7h-6.6v7h6.6v15.5H976.2z"/>
					</g>
					<g>
						<path id="DejaVuSans-105_1_" d="M1006.6,469.4h9v-54.7h-9V469.4z M1006.6,490.7h9v-11.4h-9V490.7z"/>
					</g>
					<g>
						<path id="DejaVuSans-118_2_" d="M1027.9,469.4h9.5l17.1-45.9l17.1,45.9h9.5l-20.5-54.7h-12.2L1027.9,469.4z"/>
					</g>
					<g>
						<path id="DejaVuSans-110" d="M1139,447.7v-33h-9v32.7c0,5.2-1,9-3,11.6c-2,2.6-5,3.9-9.1,3.9c-4.9,0-8.7-1.5-11.5-4.6
							c-2.8-3.1-4.2-7.3-4.2-12.6v-30.9h-9v54.7h9v-8.5c2.2,3.3,4.7,5.8,7.6,7.4c2.9,1.6,6.3,2.4,10.1,2.4c6.3,0,11-1.9,14.3-5.8
							C1137.4,461,1139,455.3,1139,447.7z"/>
					</g>
					<g>
						<path id="DejaVuSans-111_1_" d="M1178.1,463.1c-4.8,0-8.6-1.9-11.4-5.6c-2.8-3.8-4.2-8.9-4.2-15.5s1.4-11.7,4.2-15.5
							c2.8-3.8,6.6-5.6,11.5-5.6c4.8,0,8.6,1.9,11.4,5.7c2.8,3.8,4.2,8.9,4.2,15.4c0,6.5-1.4,11.6-4.2,15.4
							C1186.7,461.2,1182.9,463.1,1178.1,463.1z M1178.1,470.7c7.8,0,13.9-2.5,18.4-7.6c4.5-5.1,6.7-12.1,6.7-21.1
							c0-8.9-2.2-16-6.7-21.1c-4.5-5.1-10.6-7.6-18.4-7.6c-7.8,0-14,2.5-18.4,7.6c-4.4,5.1-6.7,12.1-6.7,21.1c0,9,2.2,16,6.7,21.1
							C1164.1,468.2,1170.3,470.7,1178.1,470.7z"/>
					</g>
				</g>
			</g>
		</g>
		<g id="matplotlib.axis_2">
			<g id="ytick_1">
				<g id="line2d_7">
					<g>
						<g>
							<path id="mfa131ecaa3" class="st1" d="M40.2,261.2h-3.5"/>
						</g>
					</g>
				</g>
				<g id="text_8">
					<g transform="translate(37.875 306.508711)scale(0.1 -0.1)">
						<g>
							<path id="DejaVuSans-53_1_" d="M-163.5,487.6h38.7v-8.3h-29.7v-17.9c1.4,0.5,2.9,0.9,4.3,1.1c1.4,0.2,2.9,0.4,4.3,0.4
								c8.1,0,14.6-2.2,19.3-6.7c4.8-4.5,7.1-10.5,7.1-18.1c0-7.8-2.4-13.9-7.3-18.3c-4.9-4.3-11.8-6.5-20.7-6.5
								c-3.1,0-6.2,0.3-9.4,0.8c-3.2,0.5-6.4,1.3-9.8,2.3v9.9c2.9-1.6,6-2.8,9.1-3.6s6.4-1.2,9.9-1.2c5.6,0,10.1,1.5,13.4,4.4
								c3.3,3,4.9,7,4.9,12.1c0,5.1-1.6,9.1-4.9,12c-3.3,3-7.7,4.5-13.4,4.5c-2.6,0-5.3-0.3-7.9-0.9c-2.6-0.6-5.3-1.5-8-2.7V487.6z"
								/>
						</g>
						<g>
							<path id="DejaVuSans-48_11_" d="M-78.9,481.1c-5.1,0-8.9-2.5-11.5-7.5c-2.6-5-3.8-12.5-3.8-22.5c0-10,1.3-17.5,3.8-22.5
								c2.6-5,6.4-7.5,11.5-7.5c5.1,0,8.9,2.5,11.5,7.5c2.6,5,3.8,12.5,3.8,22.5c0,10-1.3,17.5-3.8,22.5
								C-70,478.6-73.8,481.1-78.9,481.1z M-78.9,488.9c8.2,0,14.4-3.2,18.7-9.7c4.3-6.5,6.5-15.8,6.5-28.1
								c0-12.3-2.2-21.6-6.5-28.1c-4.3-6.5-10.6-9.7-18.7-9.7c-8.2,0-14.4,3.2-18.7,9.7c-4.3,6.5-6.5,15.8-6.5,28.1
								c0,12.3,2.2,21.7,6.5,28.1C-93.3,485.7-87.1,488.9-78.9,488.9z"/>
						</g>
					</g>
				</g>
			</g>
			<g id="ytick_2">
				<g id="line2d_8">
					<g>
						<g>
							<path id="mfa131ecaa3_1_" class="st1" d="M40.2,225.1h-3.5"/>
						</g>
					</g>
				</g>
				<g id="text_9">
					<g transform="translate(31.5125 270.401249)scale(0.1 -0.1)">
						<g>
							<path id="DejaVuSans-49_1_" d="M-161.9,423h16.1v55.6l-17.5-3.5v9l17.4,3.5h9.9V423h16.1v-8.3h-42V423z"/>
						</g>
						<g>
							<path id="DejaVuSans-48_12_" d="M-78.9,481.1c-5.1,0-8.9-2.5-11.5-7.5c-2.6-5-3.8-12.5-3.8-22.5c0-10,1.3-17.5,3.8-22.5
								c2.6-5,6.4-7.5,11.5-7.5c5.1,0,8.9,2.5,11.5,7.5c2.6,5,3.8,12.5,3.8,22.5c0,10-1.3,17.5-3.8,22.5
								C-70,478.6-73.8,481.1-78.9,481.1z M-78.9,488.9c8.2,0,14.4-3.2,18.7-9.7c4.3-6.5,6.5-15.8,6.5-28.1
								c0-12.3-2.2-21.6-6.5-28.1c-4.3-6.5-10.6-9.7-18.7-9.7c-8.2,0-14.4,3.2-18.7,9.7c-4.3,6.5-6.5,15.8-6.5,28.1
								c0,12.3,2.2,21.7,6.5,28.1C-93.3,485.7-87.1,488.9-78.9,488.9z"/>
						</g>
						<g>
							<path id="DejaVuSans-48_13_" d="M-15.3,481.1c-5.1,0-8.9-2.5-11.5-7.5c-2.6-5-3.8-12.5-3.8-22.5c0-10,1.3-17.5,3.8-22.5
								c2.6-5,6.4-7.5,11.5-7.5c5.1,0,8.9,2.5,11.5,7.5c2.6,5,3.8,12.5,3.8,22.5c0,10-1.3,17.5-3.8,22.5
								C-6.4,478.6-10.2,481.1-15.3,481.1z M-15.3,488.9c8.2,0,14.4-3.2,18.7-9.7c4.3-6.5,6.5-15.8,6.5-28.1
								c0-12.3-2.2-21.6-6.5-28.1c-4.3-6.5-10.6-9.7-18.7-9.7c-8.2,0-14.4,3.2-18.7,9.7c-4.3,6.5-6.5,15.8-6.5,28.1
								c0,12.3,2.2,21.7,6.5,28.1C-29.7,485.7-23.5,488.9-15.3,488.9z"/>
						</g>
					</g>
				</g>
			</g>
			<g id="ytick_3">
				<g id="line2d_9">
					<g>
						<g>
							<path id="mfa131ecaa3_2_" class="st1" d="M40.2,189h-3.5"/>
						</g>
					</g>
				</g>
				<g id="text_10">
					<g transform="translate(31.5125 234.293786)scale(0.1 -0.1)">
						<g>
							<path id="DejaVuSans-49_2_" d="M-161.9,423h16.1v55.6l-17.5-3.5v9l17.4,3.5h9.9V423h16.1v-8.3h-42V423z"/>
						</g>
						<g>
							<path id="DejaVuSans-53_2_" d="M-99.9,487.6h38.7v-8.3h-29.7v-17.9c1.4,0.5,2.9,0.9,4.3,1.1c1.4,0.2,2.9,0.4,4.3,0.4
								c8.1,0,14.6-2.2,19.3-6.7c4.8-4.5,7.1-10.5,7.1-18.1c0-7.8-2.4-13.9-7.3-18.3c-4.9-4.3-11.8-6.5-20.7-6.5
								c-3.1,0-6.2,0.3-9.4,0.8c-3.2,0.5-6.4,1.3-9.8,2.3v9.9c2.9-1.6,6-2.8,9.1-3.6s6.4-1.2,9.9-1.2c5.6,0,10.1,1.5,13.4,4.4
								c3.3,3,4.9,7,4.9,12.1c0,5.1-1.6,9.1-4.9,12c-3.3,3-7.7,4.5-13.4,4.5c-2.6,0-5.3-0.3-7.9-0.9c-2.6-0.6-5.3-1.5-8-2.7V487.6z"
								/>
						</g>
						<g>
							<path id="DejaVuSans-48_14_" d="M-15.3,481.1c-5.1,0-8.9-2.5-11.5-7.5c-2.6-5-3.8-12.5-3.8-22.5c0-10,1.3-17.5,3.8-22.5
								c2.6-5,6.4-7.5,11.5-7.5c5.1,0,8.9,2.5,11.5,7.5c2.6,5,3.8,12.5,3.8,22.5c0,10-1.3,17.5-3.8,22.5
								C-6.4,478.6-10.2,481.1-15.3,481.1z M-15.3,488.9c8.2,0,14.4-3.2,18.7-9.7c4.3-6.5,6.5-15.8,6.5-28.1
								c0-12.3-2.2-21.6-6.5-28.1c-4.3-6.5-10.6-9.7-18.7-9.7c-8.2,0-14.4,3.2-18.7,9.7c-4.3,6.5-6.5,15.8-6.5,28.1
								c0,12.3,2.2,21.7,6.5,28.1C-29.7,485.7-23.5,488.9-15.3,488.9z"/>
						</g>
					</g>
				</g>
			</g>
			<g id="ytick_4">
				<g id="line2d_10">
					<g>
						<g>
							<path id="mfa131ecaa3_3_" class="st1" d="M40.2,152.9h-3.5"/>
						</g>
					</g>
				</g>
				<g id="text_11">
					<g transform="translate(31.5125 198.186323)scale(0.1 -0.1)">
						<g>
							<path id="DejaVuSans-50_1_" d="M-155.2,423h34.4v-8.3H-167v8.3c3.7,3.9,8.8,9.1,15.3,15.6c6.5,6.5,10.5,10.7,12.2,12.6
								c3.2,3.5,5.4,6.5,6.6,9c1.3,2.5,1.9,4.9,1.9,7.3c0,3.9-1.4,7-4.1,9.5c-2.7,2.4-6.3,3.7-10.6,3.7c-3.1,0-6.4-0.5-9.8-1.6
								c-3.4-1.1-7.1-2.7-11-4.9v10c4,1.6,7.7,2.8,11.1,3.6c3.5,0.8,6.6,1.2,9.5,1.2c7.6,0,13.6-1.9,18.1-5.7
								c4.5-3.8,6.7-8.8,6.7-15.1c0-3-0.6-5.8-1.7-8.5c-1.1-2.7-3.2-5.8-6.1-9.5c-0.8-0.9-3.4-3.7-7.8-8.2
								C-141.1,437.4-147.2,431.1-155.2,423z"/>
						</g>
						<g>
							<path id="DejaVuSans-48_15_" d="M-78.9,481.1c-5.1,0-8.9-2.5-11.5-7.5c-2.6-5-3.8-12.5-3.8-22.5c0-10,1.3-17.5,3.8-22.5
								c2.6-5,6.4-7.5,11.5-7.5c5.1,0,8.9,2.5,11.5,7.5c2.6,5,3.8,12.5,3.8,22.5c0,10-1.3,17.5-3.8,22.5
								C-70,478.6-73.8,481.1-78.9,481.1z M-78.9,488.9c8.2,0,14.4-3.2,18.7-9.7c4.3-6.5,6.5-15.8,6.5-28.1
								c0-12.3-2.2-21.6-6.5-28.1c-4.3-6.5-10.6-9.7-18.7-9.7c-8.2,0-14.4,3.2-18.7,9.7c-4.3,6.5-6.5,15.8-6.5,28.1
								c0,12.3,2.2,21.7,6.5,28.1C-93.3,485.7-87.1,488.9-78.9,488.9z"/>
						</g>
						<g>
							<path id="DejaVuSans-48_16_" d="M-15.3,481.1c-5.1,0-8.9-2.5-11.5-7.5c-2.6-5-3.8-12.5-3.8-22.5c0-10,1.3-17.5,3.8-22.5
								c2.6-5,6.4-7.5,11.5-7.5c5.1,0,8.9,2.5,11.5,7.5c2.6,5,3.8,12.5,3.8,22.5c0,10-1.3,17.5-3.8,22.5
								C-6.4,478.6-10.2,481.1-15.3,481.1z M-15.3,488.9c8.2,0,14.4-3.2,18.7-9.7c4.3-6.5,6.5-15.8,6.5-28.1
								c0-12.3-2.2-21.6-6.5-28.1c-4.3-6.5-10.6-9.7-18.7-9.7c-8.2,0-14.4,3.2-18.7,9.7c-4.3,6.5-6.5,15.8-6.5,28.1
								c0,12.3,2.2,21.7,6.5,28.1C-29.7,485.7-23.5,488.9-15.3,488.9z"/>
						</g>
					</g>
				</g>
			</g>
			<g id="ytick_5">
				<g id="line2d_11">
					<g>
						<g>
							<path id="mfa131ecaa3_4_" class="st1" d="M40.2,116.8h-3.5"/>
						</g>
					</g>
				</g>
				<g id="text_12">
					<g transform="translate(31.5125 162.078861)scale(0.1 -0.1)">
						<g>
							<path id="DejaVuSans-50_2_" d="M-155.2,423h34.4v-8.3H-167v8.3c3.7,3.9,8.8,9.1,15.3,15.6c6.5,6.5,10.5,10.7,12.2,12.6
								c3.2,3.5,5.4,6.5,6.6,9c1.3,2.5,1.9,4.9,1.9,7.3c0,3.9-1.4,7-4.1,9.5c-2.7,2.4-6.3,3.7-10.6,3.7c-3.1,0-6.4-0.5-9.8-1.6
								c-3.4-1.1-7.1-2.7-11-4.9v10c4,1.6,7.7,2.8,11.1,3.6c3.5,0.8,6.6,1.2,9.5,1.2c7.6,0,13.6-1.9,18.1-5.7
								c4.5-3.8,6.7-8.8,6.7-15.1c0-3-0.6-5.8-1.7-8.5c-1.1-2.7-3.2-5.8-6.1-9.5c-0.8-0.9-3.4-3.7-7.8-8.2
								C-141.1,437.4-147.2,431.1-155.2,423z"/>
						</g>
						<g>
							<path id="DejaVuSans-53_3_" d="M-99.9,487.6h38.7v-8.3h-29.7v-17.9c1.4,0.5,2.9,0.9,4.3,1.1c1.4,0.2,2.9,0.4,4.3,0.4
								c8.1,0,14.6-2.2,19.3-6.7c4.8-4.5,7.1-10.5,7.1-18.1c0-7.8-2.4-13.9-7.3-18.3c-4.9-4.3-11.8-6.5-20.7-6.5
								c-3.1,0-6.2,0.3-9.4,0.8c-3.2,0.5-6.4,1.3-9.8,2.3v9.9c2.9-1.6,6-2.8,9.1-3.6s6.4-1.2,9.9-1.2c5.6,0,10.1,1.5,13.4,4.4
								c3.3,3,4.9,7,4.9,12.1c0,5.1-1.6,9.1-4.9,12c-3.3,3-7.7,4.5-13.4,4.5c-2.6,0-5.3-0.3-7.9-0.9c-2.6-0.6-5.3-1.5-8-2.7V487.6z"
								/>
						</g>
						<g>
							<path id="DejaVuSans-48_17_" d="M-15.3,481.1c-5.1,0-8.9-2.5-11.5-7.5c-2.6-5-3.8-12.5-3.8-22.5c0-10,1.3-17.5,3.8-22.5
								c2.6-5,6.4-7.5,11.5-7.5c5.1,0,8.9,2.5,11.5,7.5c2.6,5,3.8,12.5,3.8,22.5c0,10-1.3,17.5-3.8,22.5
								C-6.4,478.6-10.2,481.1-15.3,481.1z M-15.3,488.9c8.2,0,14.4-3.2,18.7-9.7c4.3-6.5,6.5-15.8,6.5-28.1
								c0-12.3-2.2-21.6-6.5-28.1c-4.3-6.5-10.6-9.7-18.7-9.7c-8.2,0-14.4,3.2-18.7,9.7c-4.3,6.5-6.5,15.8-6.5,28.1
								c0,12.3,2.2,21.7,6.5,28.1C-29.7,485.7-23.5,488.9-15.3,488.9z"/>
						</g>
					</g>
				</g>
			</g>
			<g id="ytick_6">
				<g id="line2d_12">
					<g>
						<g>
							<path id="mfa131ecaa3_5_" class="st1" d="M40.2,80.7h-3.5"/>
						</g>
					</g>
				</g>
				<g id="text_13">
					<g transform="translate(31.5125 125.971398)scale(0.1 -0.1)">
						<g>
							<path id="DejaVuSans-51_1_" d="M-133.8,454c4.7-1,8.4-3.1,11-6.3c2.7-3.2,4-7.1,4-11.8c0-7.2-2.5-12.8-7.4-16.7
								c-4.9-3.9-12-5.9-21.1-5.9c-3.1,0-6.2,0.3-9.4,0.9c-3.2,0.6-6.6,1.5-10,2.7v9.5c2.7-1.6,5.7-2.8,9-3.6
								c3.3-0.8,6.7-1.2,10.2-1.2c6.2,0,10.9,1.2,14.1,3.7c3.2,2.4,4.9,6,4.9,10.6c0,4.3-1.5,7.7-4.5,10.1c-3,2.4-7.2,3.6-12.6,3.6
								h-8.5v8.1h8.9c4.8,0,8.6,1,11.1,2.9c2.6,1.9,3.9,4.7,3.9,8.4c0,3.7-1.3,6.6-4,8.6c-2.6,2-6.4,3-11.4,3
								c-2.7,0-5.6-0.3-8.7-0.9c-3.1-0.6-6.5-1.5-10.2-2.7v8.8c3.8,1,7.3,1.8,10.5,2.3c3.3,0.5,6.4,0.8,9.3,0.8
								c7.5,0,13.4-1.7,17.8-5.1c4.4-3.4,6.5-8,6.5-13.8c0-4-1.2-7.5-3.5-10.2S-129.5,455.1-133.8,454z"/>
						</g>
						<g>
							<path id="DejaVuSans-48_18_" d="M-78.9,481.1c-5.1,0-8.9-2.5-11.5-7.5c-2.6-5-3.8-12.5-3.8-22.5c0-10,1.3-17.5,3.8-22.5
								c2.6-5,6.4-7.5,11.5-7.5c5.1,0,8.9,2.5,11.5,7.5c2.6,5,3.8,12.5,3.8,22.5c0,10-1.3,17.5-3.8,22.5
								C-70,478.6-73.8,481.1-78.9,481.1z M-78.9,488.9c8.2,0,14.4-3.2,18.7-9.7c4.3-6.5,6.5-15.8,6.5-28.1
								c0-12.3-2.2-21.6-6.5-28.1c-4.3-6.5-10.6-9.7-18.7-9.7c-8.2,0-14.4,3.2-18.7,9.7c-4.3,6.5-6.5,15.8-6.5,28.1
								c0,12.3,2.2,21.7,6.5,28.1C-93.3,485.7-87.1,488.9-78.9,488.9z"/>
						</g>
						<g>
							<path id="DejaVuSans-48_19_" d="M-15.3,481.1c-5.1,0-8.9-2.5-11.5-7.5c-2.6-5-3.8-12.5-3.8-22.5c0-10,1.3-17.5,3.8-22.5
								c2.6-5,6.4-7.5,11.5-7.5c5.1,0,8.9,2.5,11.5,7.5c2.6,5,3.8,12.5,3.8,22.5c0,10-1.3,17.5-3.8,22.5
								C-6.4,478.6-10.2,481.1-15.3,481.1z M-15.3,488.9c8.2,0,14.4-3.2,18.7-9.7c4.3-6.5,6.5-15.8,6.5-28.1
								c0-12.3-2.2-21.6-6.5-28.1c-4.3-6.5-10.6-9.7-18.7-9.7c-8.2,0-14.4,3.2-18.7,9.7c-4.3,6.5-6.5,15.8-6.5,28.1
								c0,12.3,2.2,21.7,6.5,28.1C-29.7,485.7-23.5,488.9-15.3,488.9z"/>
						</g>
					</g>
				</g>
			</g>
			<g id="ytick_7">
				<g id="line2d_13">
					<g>
						<g>
							<path id="mfa131ecaa3_6_" class="st1" d="M40.2,44.6h-3.5"/>
						</g>
					</g>
				</g>
				<g id="text_14">
					<g transform="translate(31.5125 89.863935)scale(0.1 -0.1)">
						<g>
							<path id="DejaVuSans-51_2_" d="M-133.8,454c4.7-1,8.4-3.1,11-6.3c2.7-3.2,4-7.1,4-11.8c0-7.2-2.5-12.8-7.4-16.7
								c-4.9-3.9-12-5.9-21.1-5.9c-3.1,0-6.2,0.3-9.4,0.9c-3.2,0.6-6.6,1.5-10,2.7v9.5c2.7-1.6,5.7-2.8,9-3.6
								c3.3-0.8,6.7-1.2,10.2-1.2c6.2,0,10.9,1.2,14.1,3.7c3.2,2.4,4.9,6,4.9,10.6c0,4.3-1.5,7.7-4.5,10.1c-3,2.4-7.2,3.6-12.6,3.6
								h-8.5v8.1h8.9c4.8,0,8.6,1,11.1,2.9c2.6,1.9,3.9,4.7,3.9,8.4c0,3.7-1.3,6.6-4,8.6c-2.6,2-6.4,3-11.4,3
								c-2.7,0-5.6-0.3-8.7-0.9c-3.1-0.6-6.5-1.5-10.2-2.7v8.8c3.8,1,7.3,1.8,10.5,2.3c3.3,0.5,6.4,0.8,9.3,0.8
								c7.5,0,13.4-1.7,17.8-5.1c4.4-3.4,6.5-8,6.5-13.8c0-4-1.2-7.5-3.5-10.2S-129.5,455.1-133.8,454z"/>
						</g>
						<g>
							<path id="DejaVuSans-53_4_" d="M-99.9,487.6h38.7v-8.3h-29.7v-17.9c1.4,0.5,2.9,0.9,4.3,1.1c1.4,0.2,2.9,0.4,4.3,0.4
								c8.1,0,14.6-2.2,19.3-6.7c4.8-4.5,7.1-10.5,7.1-18.1c0-7.8-2.4-13.9-7.3-18.3c-4.9-4.3-11.8-6.5-20.7-6.5
								c-3.1,0-6.2,0.3-9.4,0.8c-3.2,0.5-6.4,1.3-9.8,2.3v9.9c2.9-1.6,6-2.8,9.1-3.6s6.4-1.2,9.9-1.2c5.6,0,10.1,1.5,13.4,4.4
								c3.3,3,4.9,7,4.9,12.1c0,5.1-1.6,9.1-4.9,12c-3.3,3-7.7,4.5-13.4,4.5c-2.6,0-5.3-0.3-7.9-0.9c-2.6-0.6-5.3-1.5-8-2.7V487.6z"
								/>
						</g>
						<g>
							<path id="DejaVuSans-48_20_" d="M-15.3,481.1c-5.1,0-8.9-2.5-11.5-7.5c-2.6-5-3.8-12.5-3.8-22.5c0-10,1.3-17.5,3.8-22.5
								c2.6-5,6.4-7.5,11.5-7.5c5.1,0,8.9,2.5,11.5,7.5c2.6,5,3.8,12.5,3.8,22.5c0,10-1.3,17.5-3.8,22.5
								C-6.4,478.6-10.2,481.1-15.3,481.1z M-15.3,488.9c8.2,0,14.4-3.2,18.7-9.7c4.3-6.5,6.5-15.8,6.5-28.1
								c0-12.3-2.2-21.6-6.5-28.1c-4.3-6.5-10.6-9.7-18.7-9.7c-8.2,0-14.4,3.2-18.7,9.7c-4.3,6.5-6.5,15.8-6.5,28.1
								c0,12.3,2.2,21.7,6.5,28.1C-29.7,485.7-23.5,488.9-15.3,488.9z"/>
						</g>
					</g>
				</g>
			</g>
			<g id="ytick_8">
				<g id="line2d_14">
					<g>
						<g>
							<path id="mfa131ecaa3_7_" class="st1" d="M40.2,8.5h-3.5"/>
						</g>
					</g>
				</g>
				<g id="text_15">
					<g transform="translate(31.5125 53.756472)scale(0.1 -0.1)">
						<g>
							<path id="DejaVuSans-52_1_" d="M-136.5,479l-24.9-38.9h24.9V479z M-139.1,487.6h12.4v-47.5h10.4v-8.2h-10.4v-17.2h-9.8v17.2
								h-32.9v9.5L-139.1,487.6z"/>
						</g>
						<g>
							<path id="DejaVuSans-48_21_" d="M-78.9,481.1c-5.1,0-8.9-2.5-11.5-7.5c-2.6-5-3.8-12.5-3.8-22.5c0-10,1.3-17.5,3.8-22.5
								c2.6-5,6.4-7.5,11.5-7.5c5.1,0,8.9,2.5,11.5,7.5c2.6,5,3.8,12.5,3.8,22.5c0,10-1.3,17.5-3.8,22.5
								C-70,478.6-73.8,481.1-78.9,481.1z M-78.9,488.9c8.2,0,14.4-3.2,18.7-9.7c4.3-6.5,6.5-15.8,6.5-28.1
								c0-12.3-2.2-21.6-6.5-28.1c-4.3-6.5-10.6-9.7-18.7-9.7c-8.2,0-14.4,3.2-18.7,9.7c-4.3,6.5-6.5,15.8-6.5,28.1
								c0,12.3,2.2,21.7,6.5,28.1C-93.3,485.7-87.1,488.9-78.9,488.9z"/>
						</g>
						<g>
							<path id="DejaVuSans-48_22_" d="M-15.3,481.1c-5.1,0-8.9-2.5-11.5-7.5c-2.6-5-3.8-12.5-3.8-22.5c0-10,1.3-17.5,3.8-22.5
								c2.6-5,6.4-7.5,11.5-7.5c5.1,0,8.9,2.5,11.5,7.5c2.6,5,3.8,12.5,3.8,22.5c0,10-1.3,17.5-3.8,22.5
								C-6.4,478.6-10.2,481.1-15.3,481.1z M-15.3,488.9c8.2,0,14.4-3.2,18.7-9.7c4.3-6.5,6.5-15.8,6.5-28.1
								c0-12.3-2.2-21.6-6.5-28.1c-4.3-6.5-10.6-9.7-18.7-9.7c-8.2,0-14.4,3.2-18.7,9.7c-4.3,6.5-6.5,15.8-6.5,28.1
								c0,12.3,2.2,21.7,6.5,28.1C-29.7,485.7-23.5,488.9-15.3,488.9z"/>
						</g>
					</g>
				</g>
			</g>
			<g id="text_16">
				<g transform="translate(25.432812 259.324875)rotate(-90)scale(0.1 -0.1)">
					<g>
						<path id="DejaVuSans-40" d="M445.7,250.2c-4.4-7.5-7.6-14.9-9.7-22.2c-2.1-7.3-3.2-14.7-3.2-22.3c0-7.5,1.1-15,3.2-22.3
							s5.4-14.8,9.7-22.3h-7.8c-4.9,7.7-8.5,15.2-11,22.6c-2.4,7.4-3.6,14.7-3.6,22c0,7.3,1.2,14.6,3.6,21.9
							c2.4,7.4,6.1,14.9,11,22.6H445.7z"/>
					</g>
					<g>
						<path id="DejaVuSans-116_3_" d="M472,244.6V229h18.5v-7H472v-29.7c0-4.5,0.6-7.3,1.8-8.6c1.2-1.3,3.7-1.9,7.5-1.9h9.2v-7.5
							h-9.2c-6.9,0-11.7,1.3-14.4,3.9c-2.6,2.6-4,7.3-4,14.1V222h-6.6v7h6.6v15.5H472z"/>
					</g>
					<g>
						<path id="DejaVuSans-8326" d="M514.2,197c-2.9,0-5.1-0.8-6.8-2.5c-1.7-1.7-2.5-4.1-2.5-7c0-2.9,0.8-5.2,2.5-6.9
							c1.7-1.7,3.9-2.6,6.8-2.6c2.8,0,5.1,0.9,6.8,2.6c1.7,1.7,2.5,4,2.5,6.9c0,3-0.8,5.3-2.5,7C519.3,196.2,517,197,514.2,197z
							 M526.8,214.3v-5c-1.6,0.7-3.2,1.1-4.8,1.5c-1.6,0.4-3.2,0.5-4.8,0.5c-4.2,0-7.4-1.2-9.6-3.7c-2.2-2.5-3.5-6.2-3.8-11.2
							c1.2,1.6,2.8,2.8,4.6,3.7c1.9,0.8,3.9,1.3,6.1,1.3c4.7,0,8.4-1.2,11.2-3.7c2.7-2.5,4.1-5.9,4.1-10.2c0-4.1-1.4-7.5-4.3-10.1
							c-2.8-2.5-6.6-3.8-11.3-3.8c-5.4,0-9.6,1.8-12.4,5.4c-2.9,3.6-4.3,8.9-4.3,15.8c0,6.4,1.8,11.6,5.3,15.4
							c3.5,3.8,8.2,5.8,14.2,5.8c1.6,0,3.2-0.1,4.8-0.4C523.3,215.3,525,214.8,526.8,214.3z"/>
					</g>
					<g>
						<path id="DejaVuSans-32_2_" d="M533,174.3"/>
					</g>
					<g>
						<path id="DejaVuSans-45" d="M569.7,205.7H596v-8h-26.3V205.7z"/>
					</g>
					<g>
						<path id="DejaVuSans-32_3_" d="M600.9,174.3"/>
					</g>
					<g>
						<path id="DejaVuSans-116_4_" d="M651,244.6V229h18.5v-7H651v-29.7c0-4.5,0.6-7.3,1.8-8.6c1.2-1.3,3.7-1.9,7.5-1.9h9.2v-7.5
							h-9.2c-6.9,0-11.7,1.3-14.4,3.9c-2.6,2.6-4,7.3-4,14.1V222h-6.6v7h6.6v15.5H651z"/>
					</g>
					<g>
						<path id="DejaVuSans-8321" d="M679.5,179.7h10v29.8l-10.9-2v5.7l11.2,1.9h6.7v-35.4h10v-5.4h-27V179.7z"/>
					</g>
					<g>
						<path id="DejaVuSans-41" d="M720,250.2h7.8c4.9-7.7,8.5-15.2,11-22.6c2.4-7.4,3.6-14.7,3.6-21.9c0-7.3-1.2-14.6-3.6-22
							c-2.4-7.4-6.1-14.9-11-22.6H720c4.3,7.5,7.6,14.9,9.7,22.3c2.1,7.4,3.2,14.8,3.2,22.3c0,7.5-1.1,14.9-3.2,22.3
							C727.6,235.3,724.3,242.7,720,250.2z"/>
					</g>
					<g>
						<path id="DejaVuSans-32_4_" d="M751,174.3"/>
					</g>
					<g>
						<path id="DejaVuSans-45_1_" d="M787.7,205.7H814v-8h-26.3V205.7z"/>
					</g>
					<g>
						<path id="DejaVuSans-32_5_" d="M818.9,174.3"/>
					</g>
					<g>
						<path id="DejaVuSans-40_1_" d="M881.7,250.2c-4.4-7.5-7.6-14.9-9.7-22.2c-2.1-7.3-3.2-14.7-3.2-22.3c0-7.5,1.1-15,3.2-22.3
							c2.1-7.4,5.4-14.8,9.7-22.3h-7.8c-4.9,7.7-8.5,15.2-11,22.6c-2.4,7.4-3.6,14.7-3.6,22c0,7.3,1.2,14.6,3.6,21.9
							c2.4,7.4,6.1,14.9,11,22.6H881.7z"/>
					</g>
					<g>
						<path id="DejaVuSans-116_5_" d="M908,244.6V229h18.5v-7H908v-29.7c0-4.5,0.6-7.3,1.8-8.6c1.2-1.3,3.7-1.9,7.5-1.9h9.2v-7.5
							h-9.2c-6.9,0-11.7,1.3-14.4,3.9c-2.6,2.6-4,7.3-4,14.1V222h-6.6v7h6.6v15.5H908z"/>
					</g>
					<g>
						<path id="DejaVuSans-8325" d="M935.8,215.1h24.9v-4.6h-19.1v-10c0.9,0.3,1.8,0.5,2.8,0.6c0.9,0.1,1.8,0.2,2.7,0.2
							c5.2,0,9.4-1.3,12.5-3.8c3.1-2.5,4.6-5.8,4.6-10.1c0-4.4-1.6-7.8-4.7-10.3c-3.1-2.4-7.6-3.6-13.3-3.6c-1.9,0-3.9,0.1-6,0.4
							c-2.1,0.3-4.2,0.7-6.3,1.3v5.5c1.9-0.9,3.8-1.5,5.8-2c2-0.4,4.1-0.6,6.4-0.6c3.6,0,6.5,0.8,8.6,2.5c2.1,1.7,3.2,3.9,3.2,6.7
							c0,2.8-1.1,5.1-3.2,6.7c-2.1,1.7-5,2.5-8.6,2.5c-1.7,0-3.4-0.2-5.1-0.5c-1.7-0.3-3.4-0.8-5.2-1.5V215.1z"/>
					</g>
					<g>
						<path id="DejaVuSans-32_6_" d="M969,174.3"/>
					</g>
					<g>
						<path id="DejaVuSans-45_2_" d="M1005.6,205.7h26.3v-8h-26.3V205.7z"/>
					</g>
					<g>
						<path id="DejaVuSans-32_7_" d="M1036.8,174.3"/>
					</g>
					<g>
						<path id="DejaVuSans-116_6_" d="M1086.9,244.6V229h18.5v-7h-18.5v-29.7c0-4.5,0.6-7.3,1.8-8.6c1.2-1.3,3.7-1.9,7.5-1.9h9.2
							v-7.5h-9.2c-6.9,0-11.7,1.3-14.4,3.9c-2.6,2.6-4,7.3-4,14.1V222h-6.6v7h6.6v15.5H1086.9z"/>
					</g>
					<g>
						<path id="DejaVuSans-8322" d="M1120.9,179.9h20.7v-5.6h-29.2v5.4c1.1,1,2.7,2.4,4.7,4.3c11.2,9.9,16.8,16.4,16.8,19.5
							c0,2.1-0.8,3.9-2.5,5.2c-1.7,1.3-3.9,2-6.7,2c-1.7,0-3.5-0.3-5.5-0.9c-2-0.6-4.1-1.4-6.5-2.5v6c2.5,0.9,4.8,1.6,7,2
							c2.2,0.5,4.2,0.7,6,0.7c4.7,0,8.5-1.1,11.3-3.2c2.8-2.1,4.3-5,4.3-8.5c0-4.5-5.4-11.4-16.2-20.7
							C1123.3,182,1121.9,180.8,1120.9,179.9z"/>
					</g>
					<g>
						<path id="DejaVuSans-41_1_" d="M1155.9,250.2h7.8c4.9-7.7,8.5-15.2,11-22.6c2.4-7.4,3.6-14.7,3.6-21.9c0-7.3-1.2-14.6-3.6-22
							c-2.4-7.4-6.1-14.9-11-22.6h-7.8c4.3,7.5,7.6,14.9,9.7,22.3c2.1,7.4,3.2,14.8,3.2,22.3c0,7.5-1.1,14.9-3.2,22.3
							C1163.5,235.3,1160.3,242.7,1155.9,250.2z"/>
					</g>
					<g>
						<path id="DejaVuSans-32_8_" d="M1186.9,174.3"/>
					</g>
					<g>
						<path id="DejaVuSans-91" d="M1227.3,250.3h20.7v-7h-11.7v-75.2h11.7v-7h-20.7V250.3z"/>
					</g>
					<g>
						<path id="DejaVuSans-109_1_" d="M1309.7,218.5c2.3,4,4.9,7,8.1,8.9c3.1,1.9,6.8,2.9,11,2.9c5.7,0,10.1-2,13.2-6
							c3.1-4,4.6-9.6,4.6-17v-33h-9v32.7c0,5.2-0.9,9.1-2.8,11.7c-1.9,2.5-4.7,3.8-8.5,3.8c-4.7,0-8.3-1.5-11-4.6
							c-2.7-3.1-4-7.3-4-12.6v-30.9h-9v32.7c0,5.3-0.9,9.2-2.8,11.7c-1.9,2.5-4.7,3.8-8.6,3.8c-4.6,0-8.2-1.6-11-4.7
							c-2.7-3.1-4-7.3-4-12.6v-30.9h-9V229h9v-8.5c2.1,3.4,4.5,5.8,7.4,7.4c2.9,1.6,6.3,2.4,10.2,2.4c4,0,7.4-1,10.1-3
							C1306.3,225.3,1308.4,222.4,1309.7,218.5z"/>
					</g>
					<g>
						<path id="DejaVuSans-115" d="M1399.4,227.4v-8.5c-2.5,1.3-5.2,2.3-7.9,2.9c-2.7,0.7-5.6,1-8.5,1c-4.5,0-7.8-0.7-10-2
							c-2.2-1.4-3.3-3.4-3.3-6.2c0-2.1,0.8-3.7,2.4-4.9s4.8-2.3,9.6-3.4l3.1-0.7c6.4-1.4,10.9-3.3,13.6-5.8c2.7-2.5,4-6,4-10.4
							c0-5.1-2-9.1-6-12.1c-4-3-9.5-4.4-16.6-4.4c-2.9,0-6,0.3-9.2,0.9c-3.2,0.6-6.5,1.4-10,2.6v9.3c3.3-1.7,6.6-3,9.8-3.9
							c3.2-0.9,6.4-1.3,9.6-1.3c4.2,0,7.5,0.7,9.8,2.2c2.3,1.4,3.4,3.5,3.4,6.1c0,2.4-0.8,4.3-2.5,5.6c-1.6,1.3-5.2,2.6-10.8,3.8
							l-3.1,0.7c-5.6,1.2-9.6,3-12.1,5.4c-2.5,2.4-3.7,5.8-3.7,10c0,5.1,1.8,9.1,5.5,11.9c3.6,2.8,8.8,4.2,15.5,4.2
							c3.3,0,6.4-0.2,9.4-0.7C1394.3,229.1,1397,228.4,1399.4,227.4z"/>
					</g>
					<g>
						<path id="DejaVuSans-44_1_" d="M1419,186.8h10.3v-8.4l-8-15.6h-6.3l4,15.6V186.8z"/>
					</g>
					<g>
						<path id="DejaVuSans-32_9_" d="M1439,174.3"/>
					</g>
					<g>
						<path id="DejaVuSans-110_1_" d="M1525.7,207.4v-33h-9v32.7c0,5.2-1,9-3,11.6c-2,2.6-5,3.9-9.1,3.9c-4.9,0-8.7-1.5-11.5-4.6
							c-2.8-3.1-4.2-7.3-4.2-12.6v-30.9h-9V229h9v-8.5c2.2,3.3,4.7,5.8,7.6,7.4c2.9,1.6,6.3,2.4,10.1,2.4c6.3,0,11-1.9,14.3-5.8
							C1524.1,220.6,1525.7,214.9,1525.7,207.4z"/>
					</g>
					<g>
						<path id="DejaVuSans-97_2_" d="M1568.5,201.8c-7.3,0-12.3-0.8-15.1-2.5c-2.8-1.7-4.2-4.5-4.2-8.5c0-3.2,1.1-5.7,3.2-7.6
							c2.1-1.9,5-2.8,8.6-2.8c5,0,9,1.8,12,5.3c3,3.5,4.5,8.2,4.5,14.1v2H1568.5z M1586.4,205.5v-31.2h-9v8.3
							c-2.1-3.3-4.6-5.8-7.7-7.3c-3.1-1.6-6.8-2.4-11.2-2.4c-5.6,0-10,1.6-13.4,4.7c-3.3,3.1-5,7.4-5,12.6c0,6.1,2.1,10.8,6.2,13.9
							c4.1,3.1,10.3,4.7,18.4,4.7h12.6v0.9c0,4.1-1.4,7.3-4.1,9.6c-2.7,2.3-6.5,3.4-11.5,3.4c-3.1,0-6.2-0.4-9.1-1.1
							c-3-0.8-5.8-1.9-8.5-3.4v8.3c3.3,1.3,6.5,2.2,9.6,2.8c3.1,0.6,6.1,1,9,1c7.9,0,13.8-2.1,17.7-6.2
							C1584.5,220.1,1586.4,213.9,1586.4,205.5z"/>
					</g>
					<g>
						<path id="DejaVuSans-114" d="M1636.6,220.6c-1,0.6-2.1,1-3.3,1.3c-1.2,0.3-2.5,0.4-3.9,0.4c-5.1,0-9-1.7-11.7-5
							c-2.7-3.3-4.1-8-4.1-14.2v-28.8h-9V229h9v-8.5c1.9,3.3,4.4,5.8,7.4,7.4c3,1.6,6.7,2.4,11,2.4c0.6,0,1.3,0,2-0.1
							c0.8-0.1,1.6-0.2,2.5-0.4L1636.6,220.6z"/>
					</g>
					<g>
						<path id="DejaVuSans-97_3_" d="M1670.9,201.8c-7.3,0-12.3-0.8-15.1-2.5c-2.8-1.7-4.2-4.5-4.2-8.5c0-3.2,1.1-5.7,3.2-7.6
							c2.1-1.9,5-2.8,8.6-2.8c5,0,9,1.8,12,5.3c3,3.5,4.5,8.2,4.5,14.1v2H1670.9z M1688.8,205.5v-31.2h-9v8.3
							c-2.1-3.3-4.6-5.8-7.7-7.3c-3.1-1.6-6.8-2.4-11.2-2.4c-5.6,0-10,1.6-13.4,4.7c-3.3,3.1-5,7.4-5,12.6c0,6.1,2.1,10.8,6.2,13.9
							c4.1,3.1,10.3,4.7,18.4,4.7h12.6v0.9c0,4.1-1.4,7.3-4.1,9.6c-2.7,2.3-6.5,3.4-11.5,3.4c-3.1,0-6.2-0.4-9.1-1.1
							c-3-0.8-5.8-1.9-8.5-3.4v8.3c3.3,1.3,6.5,2.2,9.6,2.8c3.1,0.6,6.1,1,9,1c7.9,0,13.8-2.1,17.7-6.2
							C1686.8,220.1,1688.8,213.9,1688.8,205.5z"/>
					</g>
					<g>
						<path id="DejaVuSans-353_1_" d="M1742.2,227.4v-8.5c-2.5,1.3-5.2,2.3-7.9,2.9c-2.7,0.7-5.6,1-8.5,1c-4.5,0-7.8-0.7-10-2
							c-2.2-1.4-3.3-3.4-3.3-6.2c0-2.1,0.8-3.7,2.4-4.9s4.8-2.3,9.6-3.4l3.1-0.7c6.4-1.4,10.9-3.3,13.6-5.8c2.7-2.5,4-6,4-10.4
							c0-5.1-2-9.1-6-12.1c-4-3-9.5-4.4-16.6-4.4c-2.9,0-6,0.3-9.2,0.9c-3.2,0.6-6.5,1.4-10,2.6v9.3c3.3-1.7,6.6-3,9.8-3.9
							c3.2-0.9,6.4-1.3,9.6-1.3c4.2,0,7.5,0.7,9.8,2.2c2.3,1.4,3.4,3.5,3.4,6.1c0,2.4-0.8,4.3-2.5,5.6c-1.6,1.3-5.2,2.6-10.8,3.8
							l-3.1,0.7c-5.6,1.2-9.6,3-12.1,5.4c-2.5,2.4-3.7,5.8-3.7,10c0,5.1,1.8,9.1,5.5,11.9c3.6,2.8,8.8,4.2,15.5,4.2
							c3.3,0,6.4-0.2,9.4-0.7C1737,229.1,1739.7,228.4,1742.2,227.4z M1721.4,236l-12,18.4h6.8l8.8-12l8.8,12h6.8l-12-18.4H1721.4z"
							/>
					</g>
					<g>
						<path id="DejaVuSans-269" d="M1798.8,226.9v-8.4c-2.5,1.4-5.1,2.5-7.6,3.2c-2.6,0.7-5.1,1-7.7,1c-5.8,0-10.4-1.8-13.6-5.5
							c-3.2-3.7-4.8-8.9-4.8-15.5c0-6.7,1.6-11.9,4.8-15.6c3.2-3.7,7.8-5.5,13.6-5.5c2.6,0,5.2,0.3,7.7,1c2.6,0.7,5.1,1.8,7.6,3.2
							v-8.3c-2.5-1.2-5.1-2-7.8-2.6c-2.7-0.6-5.5-0.9-8.6-0.9c-8.2,0-14.8,2.6-19.6,7.8c-4.8,5.2-7.3,12.2-7.3,21
							c0,8.9,2.4,15.9,7.3,21c4.9,5.1,11.6,7.7,20.2,7.7c2.8,0,5.5-0.3,8.1-0.9C1793.7,228.9,1796.3,228.1,1798.8,226.9z
							 M1778.1,236l-12,18.4h6.8l8.8-12l8.8,12h6.8l-12-18.4H1778.1z"/>
					</g>
					<g>
						<path id="DejaVuSans-97_4_" d="M1839.2,201.8c-7.3,0-12.3-0.8-15.1-2.5c-2.8-1.7-4.2-4.5-4.2-8.5c0-3.2,1.1-5.7,3.2-7.6
							c2.1-1.9,5-2.8,8.6-2.8c5,0,9,1.8,12,5.3c3,3.5,4.5,8.2,4.5,14.1v2H1839.2z M1857.2,205.5v-31.2h-9v8.3
							c-2.1-3.3-4.6-5.8-7.7-7.3c-3.1-1.6-6.8-2.4-11.2-2.4c-5.6,0-10,1.6-13.4,4.7c-3.3,3.1-5,7.4-5,12.6c0,6.1,2.1,10.8,6.2,13.9
							c4.1,3.1,10.3,4.7,18.4,4.7h12.6v0.9c0,4.1-1.4,7.3-4.1,9.6c-2.7,2.3-6.5,3.4-11.5,3.4c-3.1,0-6.2-0.4-9.1-1.1
							c-3-0.8-5.8-1.9-8.5-3.4v8.3c3.3,1.3,6.5,2.2,9.6,2.8c3.1,0.6,6.1,1,9,1c7.9,0,13.8-2.1,17.7-6.2
							C1855.2,220.1,1857.2,213.9,1857.2,205.5z"/>
					</g>
					<g>
						<path id="DejaVuSans-106" d="M1875.7,229h9v-55.7c0-7-1.3-12-4-15.1c-2.6-3.1-6.9-4.7-12.8-4.7h-3.4v7.6h2.4
							c3.4,0,5.7,0.8,7,2.4c1.2,1.6,1.9,4.8,1.9,9.8V229z M1875.7,250.3h9v-11.4h-9V250.3z"/>
					</g>
					<g>
						<path id="DejaVuSans-111_2_" d="M1924.6,222.7c-4.8,0-8.6-1.9-11.4-5.6c-2.8-3.8-4.2-8.9-4.2-15.5c0-6.5,1.4-11.7,4.2-15.5
							c2.8-3.8,6.6-5.6,11.5-5.6c4.8,0,8.6,1.9,11.4,5.7c2.8,3.8,4.2,8.9,4.2,15.4c0,6.5-1.4,11.6-4.2,15.4
							C1933.2,220.8,1929.4,222.7,1924.6,222.7z M1924.6,230.3c7.8,0,13.9-2.5,18.4-7.6c4.5-5.1,6.7-12.1,6.7-21.1
							c0-8.9-2.2-16-6.7-21.1c-4.5-5.1-10.6-7.6-18.4-7.6c-7.8,0-14,2.5-18.4,7.6c-4.4,5.1-6.7,12.1-6.7,21.1c0,9,2.2,16,6.7,21.1
							C1910.6,227.8,1916.8,230.3,1924.6,230.3z"/>
					</g>
					<g>
						<path id="DejaVuSans-269_1_" d="M2004,226.9v-8.4c-2.5,1.4-5.1,2.5-7.6,3.2c-2.6,0.7-5.1,1-7.7,1c-5.8,0-10.4-1.8-13.6-5.5
							c-3.2-3.7-4.8-8.9-4.8-15.5c0-6.7,1.6-11.9,4.8-15.6c3.2-3.7,7.8-5.5,13.6-5.5c2.6,0,5.2,0.3,7.7,1c2.6,0.7,5.1,1.8,7.6,3.2
							v-8.3c-2.5-1.2-5.1-2-7.8-2.6c-2.7-0.6-5.5-0.9-8.6-0.9c-8.2,0-14.8,2.6-19.6,7.8c-4.8,5.2-7.3,12.2-7.3,21
							c0,8.9,2.4,15.9,7.3,21c4.9,5.1,11.6,7.7,20.2,7.7c2.8,0,5.5-0.3,8.1-0.9C1998.9,228.9,2001.5,228.1,2004,226.9z M1983.3,236
							l-12,18.4h6.8l8.8-12l8.8,12h6.8l-12-18.4H1983.3z"/>
					</g>
					<g>
						<path id="DejaVuSans-101_2_" d="M2066.4,203.9v-4.4h-41.3c0.4-6.2,2.3-10.9,5.6-14.1c3.3-3.2,8-4.9,13.9-4.9
							c3.4,0,6.8,0.4,10,1.3c3.2,0.8,6.5,2.1,9.7,3.8v-8.5c-3.2-1.4-6.5-2.4-9.9-3.1c-3.4-0.7-6.8-1.1-10.3-1.1
							c-8.7,0-15.6,2.5-20.7,7.6c-5.1,5.1-7.6,12-7.6,20.6c0,8.9,2.4,16,7.3,21.3c4.8,5.3,11.4,7.9,19.6,7.9
							c7.4,0,13.2-2.4,17.5-7.1C2064.2,218.5,2066.4,212.1,2066.4,203.9z M2057.4,206.6c-0.1,4.9-1.4,8.8-4.1,11.8
							c-2.7,2.9-6.2,4.4-10.7,4.4c-5,0-9-1.4-12-4.3c-3-2.8-4.7-6.8-5.2-12L2057.4,206.6z"/>
					</g>
					<g>
						<path id="DejaVuSans-93" d="M2102.1,250.3v-89.2h-20.7v7h11.7v75.2h-11.7v7H2102.1z"/>
					</g>
				</g>
			</g>
		</g>
		<g id="line2d_15">
			<g>
				<defs>
					<rect id="SVGID_1_" x="40.2" width="357.1" height="266.1"/>
				</defs>
				<clipPath id="SVGID_2_">
					<use xlink:href="#SVGID_1_"  style="overflow:visible;"/>
				</clipPath>
				<path class="st2" d="M56.4,254h2l0.7-0.7h23.4l0.7-0.7h91.7l0.7-0.7h113.9l0.7-0.7h44.9l0.7-0.7H355l0.7-0.7h5.9l0.7-0.7h6.5
					l0.7-0.7h3.9l0.7-0.7h0.7l0.7-0.7h2l0.7-1.4l0.7-2.2l0.7-0.7h0.7l0.7-1.4l0.7-228.9l0,0"/>
			</g>
		</g>
		<g id="patch_3">
			<path class="st3" d="M40.2,266.1V0"/>
		</g>
		<g id="patch_4">
			<path class="st3" d="M397.3,266.1V0"/>
		</g>
		<g id="patch_5">
			<path class="st3" d="M40.2,266.1h357.1"/>
		</g>
		<g id="patch_6">
			<path class="st3" d="M40.2,0h357.1"/>
		</g>
	</g>
</g>
</svg>
